<?xml version="1.0" encoding="utf-8"?>
<!-- Generator: Adobe Illustrator 25.1.0, SVG Export Plug-In . SVG Version: 6.00 Build 0)  -->
<svg version="1.1" id="Capa_1" xmlns="http://www.w3.org/2000/svg" xmlns:xlink="http://www.w3.org/1999/xlink" x="0px" y="0px"
	 viewBox="0 0 512 512" style="enable-background:new 0 0 512 512;" xml:space="preserve">
<style type="text/css">
	.st0{fill:#FFFFFF;}
</style>
<g>
	<g>
		<g>
			<path class="st0" d="M255,348c-11,0-20,9-20,20v85c0,11,9,20,20,20c11,0,20-9,20-20v-85C275,357,266,348,255,348z"/>
			<path class="st0" d="M20,120c11,0,20-9,20-20V40h60c11,0,20-9,20-20s-9-20-20-20H20C9,0,0,9,0,20v80C0,111,9,120,20,120z"/>
			<path class="st0" d="M101,348c-11,0-20,9-20,20v35c0,11,9,20,20,20s20-9,20-20v-35C121,357,112,348,101,348z"/>
			<path class="st0" d="M100,472H40v-60c0-11-9-20-20-20s-20,9-20,20v80c0,11,9,20,20,20h80c11,0,20-9,20-20S111,472,100,472z"/>
			<path class="st0" d="M178,348c-11,0-20,9-20,20v35c0,11,9,20,20,20s20-9,20-20v-35C198,357,189,348,178,348z"/>
			<path class="st0" d="M492,0h-80c-11,0-20,9-20,20s9,20,20,20h60v60c0,11,9,20,20,20s20-9,20-20V20C512,9,503,0,492,0z"/>
			<path class="st0" d="M335,348c-11,0-20,9-20,20v35c0,11,9,20,20,20s20-9,20-20v-35C355,357,346,348,335,348z"/>
			<path class="st0" d="M492,278h-58V100c0-11-9-20-20-20s-20,9-20,20v178h-39V100c0-11-9-20-20-20s-20,9-20,20v178h-40V100
				c0-11-9-20-20-20s-20,9-20,20v178h-37V100c0-11-9-20-20-20s-20,9-20,20v178h-37V100c0-11-9-20-20-20s-20,9-20,20v178H20
				c-11,0-20,9-20,20s9,20,20,20h472c11,0,20-9,20-20S503,278,492,278z"/>
			<path class="st0" d="M414,423c11,0,20-9,20-20v-35c0-11-9-20-20-20s-20,9-20,20v35C394,414,403,423,414,423z"/>
			<path class="st0" d="M492,392c-11,0-20,9-20,20v60h-60c-11,0-20,9-20,20s9,20,20,20h80c11,0,20-9,20-20v-80
				C512,401,503,392,492,392z"/>
		</g>
	</g>
</g>
</svg>
