<?xml version="1.0" encoding="utf-8"?>
<!-- Generator: Adobe Illustrator 25.1.0, SVG Export Plug-In . SVG Version: 6.00 Build 0)  -->
<svg version="1.1" id="Capa_1" xmlns="http://www.w3.org/2000/svg" xmlns:xlink="http://www.w3.org/1999/xlink" x="0px" y="0px"
	 viewBox="0 0 124.8 124.8" style="enable-background:new 0 0 124.8 124.8;" xml:space="preserve">
<style type="text/css">
	.st0{fill:#FFFFFF;}
</style>
<g>
	<g>
		<path class="st0" d="M48.1,80.4l-1.9,11.4c-0.3,1.6,0.4,3.1,1.7,4.1c1.3,0.9,3,1.1,4.4,0.3l10.2-5.3l10.2,5.3
			c0.6,0.3,1.3,0.5,1.9,0.5c0.9,0,1.7-0.3,2.4-0.8c1.3-0.9,1.9-2.5,1.7-4.1l-1.9-11.4l8.2-8.1c1.1-1.1,1.5-2.7,1-4.2
			s-1.8-2.6-3.3-2.8l-11.4-1.7l-5.1-10.3c-0.7-1.4-2.1-2.3-3.7-2.3c-1.6,0-3,0.9-3.7,2.3l-5.1,10.3l-11.4,1.7
			c-1.6,0.2-2.9,1.3-3.3,2.8c-0.5,1.5-0.1,3.1,1,4.2L48.1,80.4z"/>
		<path class="st0" d="M111.4,13.3h-13V6c0-3.3-2.7-6-6-6h-1c-3.3,0-6,2.7-6,6v7.2H39.3V6c0-3.3-2.7-6-6-6h-1c-3.3,0-6,2.7-6,6v7.2
			H13.4C6.5,13.3,1,18.8,1,25.7v86.8c0,6.8,5.6,12.4,12.4,12.4h98.1c6.8,0,12.4-5.6,12.4-12.4V25.7
			C123.8,18.8,118.3,13.3,111.4,13.3z M109.8,110.8H15V43.3h94.8V110.8z"/>
	</g>
</g>
</svg>
