<svg id="Layer_1" data-name="Layer 1" xmlns="http://www.w3.org/2000/svg" viewBox="0 0 2000 2000"><defs><style>.cls-1{fill:#fff;}.cls-2{fill:#3fa9f5;}.cls-3{fill:#0e47a0;}.cls-4{fill:#e5f4ff;}.cls-5{fill:#bde0fc;}.cls-6{fill:#2189e6;}.cls-7{fill:#65b6f7;}</style></defs><path class="cls-1" d="M1000,1950c-128.27,0-252.68-25.11-369.77-74.63a953.58,953.58,0,0,1-505.59-505.6C75.11,1252.68,50,1128.27,50,1000s25.11-252.68,74.64-369.77A953.51,953.51,0,0,1,630.23,124.64C747.32,75.11,871.73,50,1000,50s252.68,25.11,369.77,74.64a953.58,953.58,0,0,1,505.6,505.59C1924.89,747.32,1950,871.73,1950,1000s-25.11,252.68-74.63,369.77a953.64,953.64,0,0,1-505.6,505.6C1252.68,1924.89,1128.27,1950,1000,1950Z"/><path class="cls-2" d="M1000,100a906.78,906.78,0,0,1,181.49,18.29,894.6,894.6,0,0,1,321.64,135.36,902.88,902.88,0,0,1,326.18,396.06,893.91,893.91,0,0,1,52.4,168.8,909.6,909.6,0,0,1,0,363,894.6,894.6,0,0,1-135.36,321.64,902.88,902.88,0,0,1-396.06,326.18,893.91,893.91,0,0,1-168.8,52.4,909.6,909.6,0,0,1-363,0,894.6,894.6,0,0,1-321.64-135.36,902.88,902.88,0,0,1-326.18-396.06,893.91,893.91,0,0,1-52.4-168.8,909.6,909.6,0,0,1,0-363A894.6,894.6,0,0,1,253.65,496.87,902.88,902.88,0,0,1,649.71,170.69a893.91,893.91,0,0,1,168.8-52.4A906.78,906.78,0,0,1,1000,100m0-100C447.71,0,0,447.71,0,1000S447.71,2000,1000,2000s1000-447.71,1000-1000S1552.29,0,1000,0Z"/><rect class="cls-3" x="381.22" y="479.6" width="196.17" height="1138.95"/><rect class="cls-3" x="1422.61" y="479.6" width="196.17" height="1138.95"/><path class="cls-3" d="M1520.52,381.22h-1041A98.08,98.08,0,0,0,381.4,479.3v98.08H1618.6V479.3A98.08,98.08,0,0,0,1520.52,381.22Z"/><rect class="cls-3" x="1221.93" y="771.79" width="77.18" height="716.17" transform="translate(130.65 2390.39) rotate(-90)"/><rect class="cls-3" x="923.21" y="323.61" width="153.98" height="716.17" transform="translate(318.5 1681.89) rotate(-90)"/><rect class="cls-3" x="923.21" y="1183.71" width="153.98" height="716.17" transform="translate(-541.59 2541.99) rotate(-90)"/><rect class="cls-3" x="642.27" y="604.84" width="209.65" height="1013.71"/><polygon class="cls-4" points="1110.34 990.75 943.6 990.75 943.6 796.29 1323.41 796.29 1323.41 990.75 1268.34 990.75 1110.34 990.75"/><path class="cls-5" d="M1176.82,833.85a92.54,92.54,0,1,0,92.53,92.54A92.54,92.54,0,0,0,1176.82,833.85Z"/><path class="cls-6" d="M1256.26,978.82l63.2,63.2a12.46,12.46,0,0,1,0,17.63l-5.5,5.51a12.48,12.48,0,0,1-17.64,0l-63.2-63.21Z"/><circle class="cls-7" cx="1177.29" cy="926.84" r="74.92"/><path class="cls-3" d="M1305.31,1060.09a2.25,2.25,0,0,1-1.61-.67l-51.55-51.55a2.28,2.28,0,0,1,3.22-3.22l51.55,51.55a2.28,2.28,0,0,1-1.61,3.89Z"/><rect class="cls-3" x="1045.39" y="824.39" width="4.56" height="138.25"/><rect class="cls-3" x="1221.62" y="824.39" width="4.56" height="23.55"/><rect class="cls-3" x="1271.38" y="824.39" width="4.56" height="138.25"/><rect class="cls-3" x="977.02" y="824.39" width="4.56" height="138.25"/><path class="cls-3" d="M1176.82,1022.72a95.5,95.5,0,0,1-57.67-19.16A97.07,97.07,0,0,1,1091,970.23a96.35,96.35,0,1,1,85.8,52.49Zm0-185.07a88.74,88.74,0,1,0,88.73,88.74A88.84,88.84,0,0,0,1176.82,837.65Z"/><path class="cls-3" d="M1176.82,1004.66a78.27,78.27,0,1,1,78.26-78.27A78.36,78.36,0,0,1,1176.82,1004.66Zm0-148.95a70.68,70.68,0,1,0,70.67,70.68A70.76,70.76,0,0,0,1176.82,855.71Z"/><path class="cls-3" d="M1305.14,1072.6a16.21,16.21,0,0,1-11.5-4.76l-63.21-63.2,5.38-5.37,63.2,63.2a8.68,8.68,0,0,0,12.26,0l5.5-5.5a8.68,8.68,0,0,0,0-12.27l-63.2-63.2,5.37-5.37,63.21,63.2a16.28,16.28,0,0,1,0,23l-5.51,5.5A16.21,16.21,0,0,1,1305.14,1072.6Z"/><polygon class="cls-3" points="1327.21 994.55 1268.34 994.55 1268.34 986.95 1319.61 986.95 1319.61 800.09 947.4 800.09 947.4 986.95 1110.34 986.95 1110.34 994.55 939.8 994.55 939.8 792.49 1327.21 792.49 1327.21 994.55"/><rect class="cls-3" x="986.9" y="824.39" width="7.6" height="138.25"/><rect class="cls-3" x="1032.09" y="824.39" width="7.6" height="138.25"/><rect class="cls-3" x="1173.01" y="824.39" width="7.6" height="9.5"/><rect class="cls-3" x="1185.16" y="824.39" width="7.6" height="9.88"/><rect class="cls-3" x="1137.68" y="824.39" width="7.6" height="16.33"/><rect class="cls-3" x="1138.82" y="860.1" width="7.6" height="102.55"/><rect class="cls-3" x="1123.63" y="868.45" width="7.6" height="94.19"/><rect class="cls-3" x="1203.77" y="856.3" width="7.6" height="106.35"/><rect class="cls-3" x="1187.82" y="852.88" width="7.6" height="109.77"/><rect class="cls-3" x="1126.29" y="824.39" width="7.6" height="20.13"/><rect class="cls-3" x="1091.35" y="824.39" width="7.6" height="59.25"/><rect class="cls-3" x="1233.78" y="824.39" width="7.6" height="33.42"/><rect class="cls-3" x="1283.91" y="824.39" width="7.6" height="138.25"/><rect class="cls-3" x="1105.78" y="824.39" width="7.6" height="37.22"/><rect class="cls-3" x="1010.83" y="824.39" width="15.19" height="138.25"/><rect class="cls-3" x="1070.08" y="824.39" width="17.47" height="138.25"/><rect class="cls-3" x="1150.98" y="824.39" width="15.19" height="9.88"/><rect class="cls-3" x="1154.4" y="852.88" width="26.21" height="109.77"/><polygon class="cls-3" points="1264.92 888.3 1249.35 871.46 1249.35 824.39 1264.92 824.39 1264.92 888.3"/><path class="cls-3" d="M1292.15,1338.58c-1,24.05-.63,48.29-.47,72.36a.15.15,0,1,0,.3,0c1-24,.77-48.29.59-72.36a.21.21,0,0,0-.42,0Z"/><path class="cls-3" d="M1200.05,1395.55a34.92,34.92,0,0,0,14.36,7,.33.33,0,0,0,.18-.64,72.81,72.81,0,0,1-14.46-6.49c-.07,0-.14,0-.08.1Z"/><path class="cls-3" d="M1249.46,1394.16a118.14,118.14,0,0,1-14.56,7.77c-.3.14-.09.6.22.52a41.31,41.31,0,0,0,14.5-8.09c.11-.1,0-.28-.16-.2Z"/><path class="cls-3" d="M1225.94,1390.53c.07-1.87.13-3.73.06-5.61a.18.18,0,0,0-.35,0c-.07,1.88,0,3.74.06,5.61a.12.12,0,0,0,.23,0Z"/><path class="cls-3" d="M1232.71,1389.42c-.57-1.79-1-3.58-1.49-5.4,0-.19-.37-.15-.35,0a17.92,17.92,0,0,0,1.61,5.45c.06.13.28,0,.23-.09Z"/><path class="cls-3" d="M1238.72,1387.92q-1.71-3-3.46-6.06c-.07-.12-.26,0-.19.12,1.15,2,2.32,4,3.49,6a.09.09,0,0,0,.16-.1Z"/><path class="cls-3" d="M1243.59,1384.39a50.23,50.23,0,0,1-4.3-4.81c-.17-.21-.53.07-.38.29a27.35,27.35,0,0,0,4.45,4.74c.16.14.38-.08.23-.22Z"/><path class="cls-3" d="M1246.92,1380.87c-1.43-1.24-2.77-2.58-4.14-3.88a.24.24,0,0,0-.35.34,21.35,21.35,0,0,0,4.22,3.89c.2.15.46-.18.27-.35Z"/><path class="cls-3" d="M1249.87,1376c-2-1-4-2-6-2.94a.28.28,0,0,0-.29.49,29.6,29.6,0,0,0,6.18,2.78.18.18,0,0,0,.14-.33Z"/><path class="cls-3" d="M1251.82,1371.18c-1.9-.55-3.77-1-5.62-1.71a.34.34,0,0,0-.26.61,14.92,14.92,0,0,0,5.82,1.53.22.22,0,0,0,.06-.43Z"/><path class="cls-3" d="M1253.51,1365.1c-2-.06-3.92-.25-5.88-.38a.34.34,0,0,0-.09.67,21,21,0,0,0,6,.24.27.27,0,0,0,0-.53Z"/><path class="cls-3" d="M1254,1358.94c-1.7.13-3.29.6-5,.57a.38.38,0,0,0,0,.75,8.56,8.56,0,0,0,5.1-1.07c.1-.07.08-.26-.07-.25Z"/><path class="cls-3" d="M1254.14,1352a31.45,31.45,0,0,1-6.3,1.21c-.51,0-.54.82,0,.81a16.6,16.6,0,0,0,6.49-1.57c.25-.12.07-.53-.19-.45Z"/><path class="cls-3" d="M1250.16,1346.15c-1.43.72-2.86,1.43-4.24,2.22a.34.34,0,0,0,.35.59c1.37-.8,2.71-1.68,4-2.55a.15.15,0,0,0-.14-.26Z"/><path class="cls-3" d="M1247.11,1341.9l-1.79,1.58a20.66,20.66,0,0,0-1.77,1.59c-.19.21.06.62.32.42a16.92,16.92,0,0,0,1.66-1.62c.59-.59,1.19-1.17,1.78-1.77.13-.13-.07-.32-.2-.2Z"/><path class="cls-3" d="M1243.16,1338a27.29,27.29,0,0,0-2.54,3.61c-.18.3.26.54.46.27a27.48,27.48,0,0,0,2.25-3.76c0-.09-.08-.21-.17-.12Z"/><path class="cls-3" d="M1240.09,1334.32a12.14,12.14,0,0,0-1.63,1.94,17.66,17.66,0,0,0-1.61,2.31c-.22.39.33.69.59.34.52-.71.94-1.49,1.42-2.23a19.84,19.84,0,0,0,1.4-2.23.11.11,0,0,0-.17-.13Z"/><path class="cls-3" d="M1233.49,1332.83a23.31,23.31,0,0,0-1.76,3.71.22.22,0,0,0,.41.17,24.22,24.22,0,0,0,1.55-3.8c0-.11-.14-.19-.2-.08Z"/><path class="cls-3" d="M1228.09,1330.73a15,15,0,0,0-.5,2.4,15.85,15.85,0,0,0-.32,2.16.29.29,0,0,0,.57.08,15.7,15.7,0,0,0,.28-2.17,14.32,14.32,0,0,0,.18-2.44.11.11,0,0,0-.21,0Z"/><path class="cls-3" d="M1221.53,1332.27a22,22,0,0,0-.1,3.89.25.25,0,0,0,.5,0,22,22,0,0,0-.1-3.89.15.15,0,0,0-.3,0Z"/><path class="cls-3" d="M1213.78,1332.72a20,20,0,0,0,.49,2.14,7.17,7.17,0,0,0,.6,1.87.27.27,0,0,0,.49-.13,7.25,7.25,0,0,0-.58-2,17.14,17.14,0,0,0-.74-2c-.07-.16-.28,0-.26.11Z"/><path class="cls-3" d="M1208.76,1336.38c.32.91.77,1.81,1.18,2.69.15.32.65,0,.48-.27-.46-.84-.91-1.72-1.45-2.51-.07-.1-.25,0-.21.09Z"/><path class="cls-3" d="M1204.11,1339.25c.4.57.89,1.06,1.33,1.6s.89,1.24,1.41,1.79c.24.26.66-.07.49-.38a9.72,9.72,0,0,0-1.41-1.72,10.38,10.38,0,0,0-1.61-1.5c-.12-.08-.3.09-.21.21Z"/><path class="cls-3" d="M1200.73,1343.05c.45.4,1,.73,1.42,1.11s.85.75,1.31,1c.26.17.5-.19.31-.39a8.29,8.29,0,0,0-2.94-1.94c-.1,0-.17.11-.1.17Z"/><path class="cls-3" d="M1197.4,1346.82a15,15,0,0,0,1.87,1.27,18.47,18.47,0,0,0,2.2,1.27.32.32,0,0,0,.32-.55,16,16,0,0,0-2.22-1.24,15.43,15.43,0,0,0-2.06-1,.12.12,0,0,0-.11.21Z"/><path class="cls-3" d="M1196.35,1352.38c.88.47,1.84.83,2.73,1.28.31.16.59-.3.28-.46a9.47,9.47,0,0,0-2.95-1,.1.1,0,0,0-.06.19Z"/><path class="cls-3" d="M1194.59,1357.27a12.89,12.89,0,0,0,3.54.56.31.31,0,0,0,.09-.6,12.29,12.29,0,0,0-3.57-.37.21.21,0,0,0-.06.41Z"/><path class="cls-3" d="M1194.87,1363.13a26.91,26.91,0,0,0,4.21-.17c.31,0,.21-.51-.07-.52a26.1,26.1,0,0,0-4.14.27.21.21,0,0,0,0,.42Z"/><path class="cls-3" d="M1195.53,1370.13a9.37,9.37,0,0,0,4.26-1.18.26.26,0,0,0-.2-.47c-.74.26-1.46.54-2.19.81a9.35,9.35,0,0,0-1.9.74.06.06,0,0,0,0,.1Z"/><path class="cls-3" d="M1198,1375.8a13.63,13.63,0,0,0,4.47-2.59c.2-.18-.07-.55-.3-.38a36.06,36.06,0,0,1-4.28,2.73.13.13,0,0,0,.11.24Z"/><path class="cls-3" d="M1201.69,1379.85a17.58,17.58,0,0,0,3.57-2.34c.2-.18-.06-.48-.28-.36a17.66,17.66,0,0,0-3.43,2.53c-.09.09,0,.23.14.17Z"/><path class="cls-3" d="M1205.41,1383.06a16.57,16.57,0,0,0,3-3.41c.1-.17-.15-.38-.29-.22-1,1.09-1.83,2.36-2.84,3.46a.12.12,0,0,0,.17.17Z"/><path class="cls-3" d="M1208.84,1386.47a12.27,12.27,0,0,0,2.43-4.27.25.25,0,0,0-.46-.2c-.75,1.42-1.46,2.9-2.11,4.36,0,.08.06.19.14.11Z"/><path class="cls-3" d="M1214.81,1388.19a23,23,0,0,0,1-3.43.16.16,0,0,0-.31-.09,23,23,0,0,0-.8,3.47c0,.11.13.16.16,0Z"/><path class="cls-3" d="M1220.2,1390.39a12.64,12.64,0,0,0,.63-5.25.25.25,0,0,0-.5,0,27.81,27.81,0,0,1-.48,5.15.18.18,0,0,0,.35.1Z"/><path class="cls-3" d="M1203.16,1356.4c-1.51,7.24.81,15.53,6.79,20.27,4.81,3.81,13.87,6.77,19.75,4,.43-.2.12-.84-.31-.73-6.37,1.53-14.35-.2-19.35-4.55-5.36-4.67-7.48-12.12-6.73-19a.08.08,0,0,0-.15,0Z"/><path class="cls-3" d="M1245.61,1364.29c1.51-7.24-.81-15.53-6.8-20.27-4.81-3.82-13.86-6.77-19.75-4-.42.2-.12.83.31.73,6.37-1.53,14.36.19,19.36,4.55,5.36,4.67,7.47,12.12,6.73,19,0,.09.13.1.15,0Z"/><path class="cls-3" d="M1286.91,1402.54v-.07a.25.25,0,0,0-.16-.28l-.1,0a.26.26,0,0,0-.33.25c.08,1.73,2.26,4.13,3.15,5.58,1.58,2.57,3.15,5.18,4.88,7.65.47.67,1.56.08,1.12-.64-1.31-2.16-2.77-4.23-4.19-6.31l-2-2.91-1.16-1.66a3.52,3.52,0,0,0-1.53-1.5.2.2,0,0,0,.33-.09Z"/><path class="cls-3" d="M1261,1408c9.5.38,19,.32,28.5.67a.52.52,0,0,0,0-1c-9.48-.32-19-.59-28.5,0a.16.16,0,0,0,0,.32Z"/><path class="cls-3" d="M1290,1379.41c-.84,9.39-.1,18.92-.28,28.32a.42.42,0,0,0,.84,0c.19-9.41.17-18.92-.3-28.32a.13.13,0,0,0-.26,0Z"/><path class="cls-3" d="M1286,1203.18a80.79,80.79,0,0,0,12.23-11.14.55.55,0,0,0-.78-.77c-4,3.8-8,7.52-11.94,11.27-.33.31.11.91.49.64Z"/><path class="cls-3" d="M1293.51,1277.47c.77-13.59.42-27.29.5-40.89s.14-27.27.24-40.9a.52.52,0,0,0-1,0q-.13,20.44-.14,40.9c0,13.6-.44,27.29.14,40.89a.15.15,0,0,0,.29,0Z"/><path class="cls-3" d="M1291.17,1244c.62-5.59.17-11.46.2-17.08.05-9.48.18-19,0-28.45a.53.53,0,0,0-1.05,0c-.13,9.48,0,19,.11,28.45,0,5.62-.39,11.49.24,17.08a.24.24,0,0,0,.47,0Z"/><path class="cls-3" d="M1212.08,1195.54c27.16.93,54.35-.44,81.51.39.64,0,.62-1,0-1-6.83.56-13.59-.18-20.42-.21-6.24,0-12.49-.1-18.73-.06-14.12.09-28.25.1-42.36.58a.14.14,0,1,0,0,.27Z"/><path class="cls-3" d="M1235.85,1198.78c18.28.92,36.62-.4,54.9.39.64,0,.61-1,0-1-4.53.53-9-.17-13.47-.21-4.19,0-8.38-.09-12.56-.07-9.62.06-19.26.1-28.87.58a.14.14,0,0,0,0,.28Z"/><path class="cls-3" d="M978,1267.24c.95-23.63,1.24-47.43,1.12-71.07a.15.15,0,1,0-.3,0c-.92,23.63-1.39,47.42-1.24,71.07a.21.21,0,0,0,.42,0Z"/><path class="cls-3" d="M1047.09,1195.39c-7.65-.4-15.37-.15-23-.14-12.12,0-24.25,0-36.38.08-2.83,0-5.66.08-8.49.09a.39.39,0,0,0,0,.77c19.8-.09,39.6-.16,59.41-.34,2.83,0,5.66,0,8.49-.2a.13.13,0,0,0,0-.26Z"/><path class="cls-3" d="M1260.66,1411.86c10.06,0,20.33-.1,30.27-.17a.39.39,0,0,0,0-.77c-9.94.08-20.21.13-30.27.29a.33.33,0,0,0,0,.65Z"/><path class="cls-3" d="M1222.37,1409.78c4.66.23,9.34.14,14,.14a.33.33,0,0,0,0-.66c-4.67,0-9.35,0-14,.26a.13.13,0,0,0,0,.26Z"/><path class="cls-3" d="M975.24,1191.31a51,51,0,0,0,8.61,13.19c.32.35.83-.17.52-.53a79.18,79.18,0,0,1-8.84-12.82c-.11-.2-.37,0-.29.16Z"/><path class="cls-3" d="M983.58,1402.9c-3.14,4.51-7.15,7.69-11.25,11.26-.33.28.09.77.45.58,4.54-2.42,8.54-7.32,11.11-11.66.12-.2-.18-.36-.31-.18Z"/><path class="cls-3" d="M977.34,1375.86c-.3,12-1.58,23.89-1.92,35.84,0,.42.7.54.76.1,1.62-11.76,1.46-24.09,1.32-35.94a.08.08,0,1,0-.16,0Z"/><path class="cls-3" d="M980.27,1388.81c-.29,6.17-.3,12.37-.28,18.55a.35.35,0,0,0,.7,0c0-6.18,0-12.38-.28-18.55a.07.07,0,0,0-.14,0Z"/><path class="cls-3" d="M1041.48,1408.61c-10.45-.11-20.92.21-31.38.23s-20.94-.47-31.39-.31a.45.45,0,0,0,0,.9c10.41.65,21,.41,31.39.38s20.95-.06,31.38-.77a.22.22,0,0,0,0-.43Z"/><path class="cls-3" d="M1013.39,1198.9c-11.09-.43-22.25-.16-33.35-.12a.3.3,0,0,0,0,.6c11.1,0,22.27.15,33.35-.35a.07.07,0,0,0,0-.13Z"/><path class="cls-3" d="M980.9,1229.77c-.21-10.17-.49-20.26.22-30.42,0-.29-.43-.29-.45,0-.61,10.08-.9,20.35.19,30.42,0,0,0,0,0,0Z"/><path class="cls-3" d="M1205.35,1402a73.19,73.19,0,0,0,9.35,3.42c.35.08.62-.44.26-.61a71.22,71.22,0,0,0-9.51-3.18c-.24-.08-.33.28-.1.37Z"/><path class="cls-3" d="M1246.19,1399c-3.47,1.78-7,3.42-10.54,5.11-.24.11-.07.52.18.43a69.54,69.54,0,0,0,10.6-5.14c.26-.15,0-.54-.24-.4Z"/><path class="cls-3" d="M983.67,1203.59q15,.21,30.09.36c24.08.21,48.17.22,72.25.27q43.71.1,87.4.06,37.78,0,75.55-.08,12.4,0,24.81,0c3.9,0,7.93.28,11.82,0h.54a1.58,1.58,0,0,0,0-3.15c-10,0-20.06,0-30.09,0l-72.25.09q-43.71.06-87.41.23-37.77.17-75.54.41-12.4.09-24.81.3c-3.76.06-8.11-.47-11.82.2a3.25,3.25,0,0,1-.54,0,.7.7,0,0,0,0,1.4Z"/><path class="cls-3" d="M1191.31,1402.34q-35.19-.12-70.38-.13-55.62,0-111.25.09c-8.47,0-16.95.06-25.43.07a1.58,1.58,0,0,0,0,3.16q35.19,0,70.39-.06,55.62-.08,111.24-.3c8.48-.05,17-.08,25.43-.14a1.35,1.35,0,0,0,0-2.69Z"/><path class="cls-3" d="M1258.66,1405c9.28.43,18.56.41,27.84.5a1.58,1.58,0,0,0,0-3.16c-9.28-.09-18.56-.28-27.84,0a1.35,1.35,0,0,0,0,2.69Z"/><path class="cls-3" d="M1218.76,1405c5.26.43,10.56.52,15.84.5a1.58,1.58,0,0,0,0-3.16c-5.27-.2-10.57-.28-15.84,0a1.35,1.35,0,0,0,0,2.69Z"/><path class="cls-3" d="M984.45,1403.81c.95-22.54.93-45.14,1.09-67.7q.38-53.59.45-107.2,0-12.4,0-24.81c0-2.69-4.22-2.7-4.23,0q0,33.86,0,67.7,0,53.61.55,107.2c.09,8.27.25,16.55.57,24.81a.78.78,0,0,0,1.56,0Z"/><path class="cls-3" d="M1285.93,1202.68c-1,22.55-.93,45.15-1.09,67.7q-.37,53.61-.45,107.21,0,12.39,0,24.8c0,2.7,4.22,2.7,4.23,0q0-33.84,0-67.7,0-53.6-.55-107.2c-.09-8.27-.25-16.54-.57-24.81a.78.78,0,0,0-1.56,0Z"/><path class="cls-3" d="M997.47,1217.86q13.59.21,27.18.36c21.75.22,43.51.23,65.27.29q39.66.12,79.32.07,34,0,68-.06l22.64,0c3.48,0,7.26.4,10.73,0h.46a1.58,1.58,0,0,0,0-3.15c-9.06,0-18.11,0-27.17,0l-65.28.08q-39.66,0-79.31.21-34,.17-68,.4-11.32.08-22.64.3c-3.35.06-7.45-.52-10.74.19a2.36,2.36,0,0,1-.46,0,.7.7,0,0,0,0,1.4Z"/><path class="cls-3" d="M1199.31,1388.06q-34.08-.13-68.17-.14-54.24,0-108.48.06c-8.22,0-16.44.06-24.66.07a1.58,1.58,0,0,0,0,3.16q34.1,0,68.17,0,54.24-.08,108.48-.29l24.66-.13a1.35,1.35,0,0,0,0-2.69Z"/><path class="cls-3" d="M1254,1390.75c6.22.41,12.48.49,18.71.46a1.58,1.58,0,0,0,0-3.16c-6.23-.19-12.48-.25-18.71,0a1.35,1.35,0,0,0,0,2.69Z"/><path class="cls-3" d="M998.25,1389.51c.94-19.29.92-38.64,1.08-58q.38-46.14.44-92.28,0-10.54,0-21.08c0-2.69-4.22-2.7-4.23,0q0,29,0,58,0,46.14.56,92.29c.09,7,.25,14,.58,21.07a.78.78,0,0,0,1.55,0Z"/><path class="cls-3" d="M1271.52,1217c-1,19.28-.93,38.64-1.08,57.94q-.37,46.15-.45,92.29l0,21.07c0,2.7,4.23,2.7,4.23,0q0-29,0-58,0-46.14-.57-92.28c-.09-7-.24-14.06-.57-21.07a.78.78,0,0,0-1.55,0Z"/><path class="cls-3" d="M1242,1341.93c-7.68-8.1-21.32-8.78-30.7-3.46-10.11,5.73-14.42,16.44-12.57,27.6,2.09,12.58,15.46,20.83,27.7,20.21,11.89-.59,21.71-11.12,23.2-22.5,1.63-12.48-6.91-25.73-19.66-28.47a1,1,0,0,0-.52,1.87c9.49,3.67,17.94,11,18.31,21.77.34,10.12-7.59,20.93-17.44,23.72-10.8,3.07-24.27-3.64-28-14.24a23,23,0,0,1,8-26c9.59-7.09,21.42-5.78,31.09.23.44.28.89-.33.55-.7Z"/><path class="cls-3" d="M1232.38,1384.15q2.44,5.31,4.91,10.6c.71,1.51,3,.2,2.26-1.3q-2.46-5.31-4.91-10.61c-.7-1.51-3-.2-2.26,1.31Z"/><path class="cls-3" d="M1207.29,1329.33q2.31,5.13,4.65,10.25c.68,1.52,2.94.2,2.25-1.31q-2.32-5.12-4.64-10.25c-.69-1.51-3-.2-2.26,1.31Z"/><path class="cls-3" d="M1212.77,1381.62q-2.74,5.91-5.48,11.83c-.7,1.5,1.55,2.82,2.26,1.3l5.48-11.82c.69-1.51-1.56-2.83-2.26-1.31Z"/><path class="cls-3" d="M1237.29,1328q-2,4.51-4.09,9c-.68,1.51,1.57,2.83,2.26,1.31q2.05-4.51,4.09-9c.68-1.51-1.57-2.83-2.26-1.31Z"/><path class="cls-3" d="M1201.25,1369.88l-11.54,5.24c-1.53.7-.2,2.93,1.32,2.24l11.54-5.24c1.52-.7.2-2.93-1.32-2.24Z"/><path class="cls-3" d="M1256.46,1346.07l-9.52,4.23c-1.54.68-.21,2.92,1.32,2.24l9.52-4.24c1.54-.68.21-2.91-1.32-2.23Z"/><path class="cls-3" d="M1201.33,1350.1l-10.3-4.68c-1.52-.69-2.85,1.54-1.32,2.24l10.3,4.68c1.52.68,2.85-1.55,1.32-2.24Z"/><path class="cls-3" d="M1257.13,1375.12l-9.94-4.42c-1.53-.68-2.86,1.56-1.32,2.24l9.94,4.42c1.52.67,2.85-1.56,1.32-2.24Z"/><path class="cls-3" d="M1206.29,1376.84q-4.57,4.67-9.14,9.35c-1.17,1.2.68,3,1.85,1.83l9.14-9.35a1.3,1.3,0,0,0-1.85-1.83Z"/><path class="cls-3" d="M1247.83,1334.75l-7.32,7.37a1.3,1.3,0,0,0,1.85,1.83l7.32-7.37c1.19-1.18-.66-3-1.85-1.83Z"/><path class="cls-3" d="M1199.47,1358.86l-12.29-.72c-1.69-.1-1.68,2.49,0,2.59l12.29.71c1.68.1,1.68-2.49,0-2.58Z"/><path class="cls-3" d="M1259.66,1362l-10-.49c-1.68-.09-1.68,2.5,0,2.58l10,.5c1.68.08,1.68-2.5,0-2.59Z"/><path class="cls-3" d="M1206.83,1343.5l-8.47-8.11c-1.21-1.16-3.07.67-1.85,1.83l8.47,8.11c1.21,1.16,3.06-.67,1.85-1.83Z"/><path class="cls-3" d="M1250.33,1385.55l-8.42-8.19c-1.2-1.17-3.05.66-1.85,1.83l8.42,8.19c1.2,1.17,3-.66,1.85-1.83Z"/><path class="cls-3" d="M1226.08,1335.88c.21-3.45.41-6.91.62-10.36.1-1.67-2.52-1.66-2.62,0-.21,3.45-.41,6.91-.61,10.36-.1,1.67,2.52,1.66,2.61,0Z"/><path class="cls-3" d="M1224.07,1397.26q.32-6.33.64-12.65c.08-1.66-2.53-1.66-2.62,0q-.33,6.33-.64,12.65c-.08,1.66,2.53,1.66,2.62,0Z"/><path class="cls-3" d="M1203.33,1373.54l-10.4,7.19c-1.37,1-.07,3.2,1.32,2.24l10.4-7.2c1.37-1,.07-3.19-1.32-2.23Z"/><path class="cls-3" d="M1252.59,1339.81l-8.23,5.59c-1.38.94-.08,3.19,1.32,2.24l8.23-5.6c1.38-.94.07-3.18-1.32-2.23Z"/><path class="cls-3" d="M1200,1354.27l-11.41-2.89a1.3,1.3,0,0,0-.7,2.5l11.42,2.89a1.3,1.3,0,0,0,.69-2.5Z"/><path class="cls-3" d="M1259,1368.89c-3.53-.85-7.06-1.72-10.58-2.58-1.64-.4-2.33,2.1-.7,2.5l10.58,2.58c1.64.4,2.34-2.1.7-2.5Z"/><path class="cls-3" d="M1210.63,1340.77q-3.37-4.79-6.76-9.56c-1-1.36-3.23-.06-2.26,1.31q3.39,4.77,6.76,9.56c1,1.35,3.22.06,2.26-1.31Z"/><path class="cls-3" d="M1245.23,1390.26l-7-10c-1-1.37-3.21-.07-2.26,1.31l7,10c.94,1.36,3.21.07,2.26-1.31Z"/><path class="cls-3" d="M1230.94,1336.89q1.29-5,2.59-10a1.31,1.31,0,0,0-2.53-.69l-2.58,10a1.31,1.31,0,0,0,2.52.69Z"/><path class="cls-3" d="M1216.49,1397.22q1.58-6.33,3.16-12.65a1.31,1.31,0,0,0-2.53-.69c-1,4.22-2.11,8.43-3.15,12.65-.41,1.62,2.12,2.31,2.52.69Z"/><path class="cls-3" d="M1199.83,1364.22l-12.48,2.27c-1.66.3-1,2.8.69,2.5,4.16-.77,8.32-1.52,12.49-2.28,1.65-.3,1-2.79-.7-2.49Z"/><path class="cls-3" d="M1258.8,1353.79l-10.29,1.78c-1.66.29-1,2.79.69,2.5l10.29-1.78c1.66-.29,1-2.78-.69-2.5Z"/><path class="cls-3" d="M1204.06,1346.28q-4.8-3.39-9.59-6.79c-1.37-1-2.68,1.28-1.32,2.24l9.59,6.79c1.37,1,2.68-1.28,1.32-2.24Z"/><path class="cls-3" d="M1253.69,1381.05l-9.66-6.72c-1.38-1-2.69,1.28-1.32,2.23l9.66,6.72c1.38,1,2.69-1.28,1.32-2.23Z"/><path class="cls-3" d="M1219.78,1336.82q-1.14-5.49-2.3-11c-.34-1.63-2.86-.94-2.52.69q1.15,5.49,2.29,11c.34,1.63,2.87.94,2.53-.69Z"/><path class="cls-3" d="M1231.88,1396.25q-1.19-5.94-2.38-11.9c-.33-1.63-2.85-.94-2.53.69q1.2,6,2.38,11.9c.33,1.64,2.85.94,2.53-.69Z"/><path class="cls-3" d="M1239.74,1340.76l5.8-8c1-1.35-1.29-2.65-2.26-1.3q-2.91,4-5.8,8c-1,1.35,1.29,2.65,2.26,1.3Z"/><path class="cls-3" d="M1203.56,1391.35q3.78-5.34,7.57-10.66c1-1.37-1.3-2.66-2.26-1.31q-3.8,5.32-7.57,10.66c-1,1.37,1.3,2.66,2.26,1.31Z"/><path class="cls-3" d="M984.15,1203.24c4.14,5,8.62,9.72,13.05,14.43a1.05,1.05,0,0,0,1.48,0c1.4-1.58,2.73-3.28,4.19-4.8,4-4.19,7.29-.55,10.21,2.38,1.27,1.27,2.33,2.56,4,1.15,2.09-1.71,3.76-4.63,5.44-6.74s3.52-4.49,5.28-6.75c.6-.76-.74-1.79-1.36-1-2.18,2.64-4.36,5.27-6.49,7.94-.87,1.08-3.36,5.25-4.55,5.11-.58-.07-2.09-2.1-2.53-2.54a14.64,14.64,0,0,0-2.6-2.25c-5.81-3.48-9.81,2.24-13.12,6.08h1.48c-4.48-4.65-9-9.36-13.75-13.74a.55.55,0,0,0-.78.77Z"/><path class="cls-3" d="M1026.71,1203.24c4.14,5,8.62,9.72,13,14.43a1.05,1.05,0,0,0,1.48,0c1.41-1.58,2.73-3.28,4.2-4.8,4-4.19,7.29-.55,10.21,2.38,1.26,1.27,2.32,2.56,4,1.15,2.08-1.71,3.75-4.63,5.44-6.74s3.52-4.49,5.27-6.75c.6-.76-.74-1.79-1.36-1-2.18,2.64-4.35,5.27-6.49,7.94-.87,1.08-3.36,5.25-4.54,5.11-.58-.07-2.1-2.1-2.54-2.54a14.3,14.3,0,0,0-2.6-2.25c-5.81-3.48-9.8,2.24-13.12,6.08h1.48c-4.48-4.65-9-9.36-13.75-13.74a.55.55,0,0,0-.78.77Z"/><path class="cls-3" d="M1069.27,1203.24c4.15,5,8.63,9.72,13,14.43a1.07,1.07,0,0,0,1.49,0c1.4-1.58,2.72-3.28,4.19-4.8,4-4.19,7.29-.55,10.21,2.38,1.27,1.27,2.32,2.56,4,1.15,2.09-1.71,3.76-4.63,5.44-6.74s3.52-4.49,5.28-6.75c.59-.76-.74-1.79-1.37-1-2.17,2.64-4.35,5.27-6.48,7.94-.87,1.08-3.36,5.25-4.55,5.11-.58-.07-2.09-2.1-2.53-2.54a15,15,0,0,0-2.6-2.25c-5.81-3.48-9.81,2.24-13.13,6.08h1.49c-4.48-4.65-9-9.36-13.76-13.74a.55.55,0,0,0-.78.77Z"/><path class="cls-3" d="M1111.84,1203.24c4.14,5,8.62,9.72,13.05,14.43a1.05,1.05,0,0,0,1.48,0c1.41-1.58,2.73-3.28,4.2-4.8,4-4.19,7.28-.55,10.2,2.38,1.27,1.27,2.33,2.56,4,1.15,2.09-1.71,3.76-4.63,5.44-6.74s3.53-4.49,5.28-6.75c.6-.76-.74-1.79-1.36-1-2.18,2.64-4.36,5.27-6.49,7.94-.87,1.08-3.36,5.25-4.54,5.11-.58-.07-2.1-2.1-2.54-2.54a14.3,14.3,0,0,0-2.6-2.25c-5.81-3.48-9.8,2.24-13.12,6.08h1.48c-4.48-4.65-9-9.36-13.75-13.74a.55.55,0,0,0-.78.77Z"/><path class="cls-3" d="M1155.3,1203.24c4.14,5,8.62,9.72,13,14.43a1.05,1.05,0,0,0,1.48,0c1.4-1.58,2.73-3.28,4.2-4.8,4-4.19,7.28-.55,10.2,2.38,1.27,1.27,2.33,2.56,4,1.15,2.09-1.71,3.76-4.63,5.44-6.74s3.53-4.49,5.28-6.75c.6-.76-.74-1.79-1.36-1-2.18,2.64-4.36,5.27-6.49,7.94-.87,1.08-3.36,5.25-4.55,5.11-.58-.07-2.09-2.1-2.53-2.54a14.64,14.64,0,0,0-2.6-2.25c-5.81-3.48-9.8,2.24-13.12,6.08h1.48c-4.48-4.65-9-9.36-13.75-13.74a.55.55,0,0,0-.78.77Z"/><path class="cls-3" d="M1197.86,1203.24c4.14,5,8.62,9.72,13.05,14.43a1.05,1.05,0,0,0,1.48,0c1.41-1.58,2.73-3.28,4.2-4.8,4-4.19,7.29-.55,10.21,2.38,1.26,1.27,2.32,2.56,4,1.15,2.08-1.71,3.75-4.63,5.44-6.74s3.52-4.49,5.27-6.75c.6-.76-.74-1.79-1.36-1-2.17,2.64-4.35,5.27-6.49,7.94-.87,1.08-3.36,5.25-4.54,5.11-.58-.07-2.1-2.1-2.54-2.54a14.3,14.3,0,0,0-2.6-2.25c-5.81-3.48-9.8,2.24-13.12,6.08h1.48c-4.47-4.65-9-9.36-13.75-13.74a.55.55,0,0,0-.78.77Z"/><path class="cls-3" d="M1240.42,1203.24c4,5,8.33,9.72,12.61,14.43a1.05,1.05,0,0,0,1.48,0c1.36-1.58,2.63-3.39,4.11-4.87,4-4,7.08-.28,10,2.65,1.38,1.41,2.3,2.16,4,.72,2-1.74,3.64-4.46,5.36-6.51,1.86-2.21,3.67-4.45,5.42-6.75.59-.77-.75-1.8-1.36-1-2,2.5-4.15,4.91-6.22,7.37-.67.8-3.91,5.74-5,5.74-.52,0-2.15-2.21-2.52-2.59a17,17,0,0,0-2.14-2c-5.68-4-9.87,2-13.1,5.84h1.48c-4.33-4.65-8.71-9.36-13.3-13.74a.55.55,0,0,0-.79.77Z"/><path class="cls-3" d="M1286.26,1218.49c-5,4.1-9.82,8.54-14.58,12.92a1,1,0,0,0,0,1.47c1.6,1.39,3.32,2.7,4.86,4.15,4.22,4,.55,7.21-2.41,10.1-1.29,1.25-2.59,2.3-1.16,4,1.73,2.06,4.67,3.72,6.8,5.38s4.54,3.49,6.82,5.23c.77.59,1.82-.74,1.05-1.35-2.66-2.15-5.32-4.31-8-6.42-1.09-.86-5.3-3.33-5.16-4.5.07-.58,2.13-2.08,2.56-2.51a15,15,0,0,0,2.28-2.57c3.51-5.75-2.26-9.71-6.14-13v1.47c4.7-4.44,9.45-8.92,13.88-13.62.49-.52-.24-1.21-.78-.77Z"/><path class="cls-3" d="M1286.26,1261.5c-5,4.1-9.82,8.54-14.58,12.92a1,1,0,0,0,0,1.47c1.6,1.39,3.32,2.7,4.86,4.15,4.22,4,.55,7.21-2.41,10.1-1.29,1.26-2.59,2.3-1.16,4,1.73,2.07,4.67,3.72,6.8,5.39s4.54,3.48,6.82,5.22c.77.59,1.82-.73,1.05-1.35-2.66-2.15-5.32-4.31-8-6.42-1.09-.86-5.3-3.33-5.16-4.5.07-.57,2.13-2.07,2.56-2.51a14.28,14.28,0,0,0,2.28-2.57c3.51-5.75-2.26-9.7-6.14-13v1.47c4.7-4.43,9.45-8.92,13.88-13.61a.55.55,0,0,0-.78-.78Z"/><path class="cls-3" d="M1286.26,1303.63c-5,4.1-9.82,8.54-14.58,12.92a1,1,0,0,0,0,1.47c1.6,1.39,3.32,2.7,4.86,4.15,4.22,4,.55,7.21-2.41,10.1-1.29,1.25-2.59,2.3-1.16,4,1.73,2.06,4.67,3.72,6.8,5.38s4.54,3.49,6.82,5.23c.77.59,1.82-.74,1.05-1.35-2.66-2.15-5.32-4.31-8-6.42-1.09-.86-5.3-3.33-5.16-4.5.07-.58,2.13-2.08,2.56-2.51a15,15,0,0,0,2.28-2.57c3.51-5.75-2.26-9.71-6.14-13V1318c4.7-4.44,9.45-8.92,13.88-13.62.49-.52-.24-1.21-.78-.77Z"/><path class="cls-3" d="M1286.26,1346.41c-5,4.1-9.82,8.53-14.58,12.91a1,1,0,0,0,0,1.47c1.6,1.39,3.31,2.7,4.85,4.16,4.23,4,.56,7.21-2.4,10.1-1.29,1.25-2.6,2.3-1.16,4,1.67,2,4.35,3.6,6.33,5.31,2.33,2,4.69,3.94,7.11,5.82.87.66,2.1-.51,1.23-1.22-2.52-2.07-5-4.24-7.44-6.36-.84-.72-5.83-4-5.8-5.14,0-.56,2.21-2.17,2.62-2.58a17.64,17.64,0,0,0,2-2.19c4-5.75-1.94-10-5.9-13.37v1.47c4.7-4.43,9.45-8.92,13.88-13.61a.55.55,0,0,0-.78-.77Z"/><path class="cls-3" d="M983.22,1219.26c4.42,4.7,9.18,9.18,13.88,13.62v-1.47c-3.88,3.29-9.66,7.23-6.14,13a14.93,14.93,0,0,0,2.27,2.57c.53.52,2.49,1.86,2.56,2.51.13,1.06-4.25,3.78-5.16,4.5-2.69,2.11-5.35,4.27-8,6.42-.75.61.27,1.95,1.06,1.35,2.1-1.61,4.22-3.2,6.31-4.83s5.22-3.44,7.07-5.56c1.6-1.84.59-2.76-.92-4.23-3-2.87-6.63-6.1-2.44-10.08,1.54-1.46,3.28-2.78,4.89-4.17a1.05,1.05,0,0,0,0-1.47c-4.76-4.38-9.58-8.82-14.58-12.92-.54-.44-1.28.25-.78.77Z"/><path class="cls-3" d="M983.22,1262.28c4.42,4.69,9.18,9.18,13.88,13.61v-1.47c-3.88,3.29-9.66,7.23-6.14,13a14.22,14.22,0,0,0,2.27,2.57c.53.52,2.49,1.86,2.56,2.51.13,1.06-4.25,3.79-5.16,4.5-2.69,2.11-5.35,4.27-8,6.42-.75.61.27,1.95,1.06,1.35,2.1-1.61,4.22-3.2,6.31-4.83s5.22-3.43,7.07-5.56c1.6-1.83.59-2.76-.92-4.23-3-2.87-6.63-6.1-2.44-10.07,1.54-1.47,3.28-2.78,4.89-4.18a1.05,1.05,0,0,0,0-1.47c-4.76-4.38-9.58-8.82-14.58-12.92-.54-.44-1.28.25-.78.78Z"/><path class="cls-3" d="M983.22,1304.4c4.42,4.7,9.18,9.18,13.88,13.62v-1.47c-3.88,3.29-9.66,7.23-6.14,13a14.93,14.93,0,0,0,2.27,2.57c.53.52,2.49,1.86,2.56,2.51.13,1.06-4.25,3.78-5.16,4.5-2.69,2.11-5.35,4.27-8,6.42-.75.61.27,2,1.06,1.35,2.1-1.61,4.22-3.2,6.31-4.83s5.22-3.44,7.07-5.56c1.6-1.84.59-2.76-.92-4.23-3-2.87-6.63-6.1-2.44-10.08,1.54-1.46,3.28-2.78,4.89-4.17a1.05,1.05,0,0,0,0-1.47c-4.76-4.38-9.58-8.82-14.58-12.92-.54-.44-1.28.25-.78.77Z"/><path class="cls-3" d="M983.22,1347.18c4.42,4.7,9.18,9.18,13.88,13.61v-1.47c-3.88,3.28-9.66,7.25-6.15,13a14.69,14.69,0,0,0,2.28,2.58c.53.52,2.49,1.85,2.56,2.5.12,1-4.07,3.76-4.94,4.5-2.54,2.13-5,4.33-7.58,6.42-.87.71.36,1.88,1.23,1.22q3.45-2.67,6.78-5.49c1.78-1.5,4.94-3.25,6.25-5.2,1.16-1.74-.42-2.84-1.6-4-2.93-2.86-6.34-6-2.21-9.91,1.54-1.45,3.26-2.76,4.86-4.15a1.05,1.05,0,0,0,0-1.47c-4.76-4.38-9.57-8.81-14.58-12.91-.54-.45-1.28.25-.78.77Z"/><path class="cls-3" d="M984.93,1403.84c4.74-4.38,9.27-9.09,13.75-13.74H997.2c3.32,3.84,7.3,9.56,13.12,6.08a14.3,14.3,0,0,0,2.6-2.26c.53-.52,1.87-2.45,2.53-2.53,1.08-.12,3.83,4.21,4.55,5.11,2.13,2.67,4.31,5.3,6.49,7.94.61.74,2-.27,1.36-1-1.62-2.08-3.23-4.17-4.88-6.25s-3.47-5.17-5.62-7c-1.85-1.58-2.78-.57-4.27.92-2.9,2.91-6.16,6.56-10.18,2.41-1.48-1.52-2.81-3.24-4.22-4.83a1,1,0,0,0-1.48,0c-4.43,4.7-8.91,9.47-13.05,14.43a.55.55,0,0,0,.78.77Z"/><path class="cls-3" d="M1027.49,1403.84c4.74-4.38,9.27-9.09,13.75-13.74h-1.48c3.32,3.84,7.3,9.56,13.12,6.08a14,14,0,0,0,2.6-2.26c.53-.52,1.88-2.45,2.54-2.53,1.07-.12,3.82,4.21,4.54,5.11,2.14,2.67,4.31,5.3,6.49,7.94.62.74,2-.27,1.36-1-1.62-2.08-3.23-4.17-4.87-6.25s-3.48-5.17-5.62-7c-1.86-1.58-2.79-.57-4.27.92-2.91,2.91-6.17,6.56-10.19,2.41-1.48-1.52-2.81-3.24-4.22-4.83a1,1,0,0,0-1.48,0c-4.43,4.7-8.91,9.47-13,14.43a.55.55,0,0,0,.78.77Z"/><path class="cls-3" d="M1070.05,1403.84c4.75-4.38,9.28-9.09,13.76-13.74h-1.49c3.33,3.84,7.31,9.56,13.13,6.08a14.65,14.65,0,0,0,2.6-2.26c.52-.52,1.87-2.45,2.53-2.53,1.07-.12,3.83,4.21,4.55,5.11,2.13,2.67,4.31,5.3,6.48,7.94.62.74,2-.27,1.37-1-1.63-2.08-3.24-4.17-4.88-6.25s-3.47-5.17-5.62-7c-1.85-1.58-2.79-.57-4.27.92-2.9,2.91-6.16,6.56-10.18,2.41-1.48-1.52-2.81-3.24-4.22-4.83a1.06,1.06,0,0,0-1.49,0c-4.42,4.7-8.9,9.47-13,14.43a.55.55,0,0,0,.78.77Z"/><path class="cls-3" d="M1112.62,1403.84c4.74-4.38,9.27-9.09,13.75-13.74h-1.48c3.32,3.84,7.3,9.56,13.12,6.08a14,14,0,0,0,2.6-2.26c.53-.52,1.88-2.45,2.54-2.53,1.07-.12,3.82,4.21,4.54,5.11,2.13,2.67,4.31,5.3,6.49,7.94.61.74,2-.27,1.36-1-1.62-2.08-3.23-4.17-4.87-6.25s-3.48-5.17-5.62-7c-1.86-1.58-2.79-.57-4.28.92-2.9,2.91-6.16,6.56-10.18,2.41-1.48-1.52-2.81-3.24-4.22-4.83a1,1,0,0,0-1.48,0c-4.43,4.7-8.91,9.47-13.05,14.43a.55.55,0,0,0,.78.77Z"/><path class="cls-3" d="M1156.08,1403.84c4.76-4.37,9.28-9.08,13.76-13.73h-1.51c3.22,3.73,7.58,9.55,13.17,6.12a14.79,14.79,0,0,0,2.57-2.3c.51-.51,1.9-2.48,2.54-2.54,1.22-.11,5.34,6.32,6.24,7.42.62.74,2-.27,1.37-1-1.81-2.34-3.49-5.65-5.71-7.62-1.83-1.62-2.82-.56-4.28.92-2.88,2.89-6.23,6.55-10.24,2.48-1.49-1.51-2.74-3.33-4.15-4.92a1.1,1.1,0,0,0-1.51,0c-4.42,4.72-8.91,9.47-13,14.45a.55.55,0,0,0,.78.77Z"/><path class="cls-3" d="M1254.39,1389.64c2.92,4.09,7.19,10.17,12.94,6.67a12.94,12.94,0,0,0,2.57-2.33c.39-.42,1.9-2.66,2.45-2.69,1.37-.07,4.46,4.82,5.3,5.78,2.14,2.46,4.32,4.88,6.42,7.37.63.74,2-.27,1.37-1-1.67-2.14-3.41-4.23-5.2-6.28s-3.75-5.12-6-6.93c-1.72-1.4-2.55-.62-4,.71-3,2.77-6.45,6.5-10.53,2.75-1.58-1.45-2.89-3.19-4.46-4.66-.43-.41-1.24.14-.87.66Z"/><path class="cls-3" d="M1022.14,1209.86c-.38.72,1.15,2.23,1.52,2.72l2.79,3.63a.89.89,0,0,0,1.36.18,35.68,35.68,0,0,0,5.44-7.17c.16-.3-.2-.78-.53-.52a35.94,35.94,0,0,0-6.27,6.65l1.36-.17c-.54-.59-5.33-6-5.67-5.32Z"/><path class="cls-3" d="M1064.33,1209.73c1.55,2.4,3.78,4.22,5.25,6.68a.79.79,0,0,0,1.33,0c1.63-2.1,3.5-4.08,4.91-6.33.59-.95-.84-1.77-1.48-.91-1.58,2.13-3.41,4.43-4.76,6.37h1.33c-1.79-1.94-4.23-4-6.21-6.15-.18-.19-.52.11-.37.34Z"/><path class="cls-3" d="M1106.45,1209.12a39.71,39.71,0,0,0,5.2,7.63.82.82,0,0,0,1.16,0,92.81,92.81,0,0,0,6-7.61.72.72,0,0,0-1.11-.88,69.94,69.94,0,0,0-6,7.28h1.16a44.33,44.33,0,0,0-6-6.76c-.21-.2-.52.08-.4.34Z"/><path class="cls-3" d="M1149.65,1209.22a38.37,38.37,0,0,0,4.45,6.72c.59.77,1.17,1.26,2.12.61s1.56-2.1,2.22-3a31.09,31.09,0,0,0,3-4.49c.24-.45-.36-1-.74-.57a46.86,46.86,0,0,0-4.6,5.45c-.4.61-.32,1.13-.64,1s-.72-.89-.93-1.15a38.58,38.58,0,0,0-4.27-5,.36.36,0,0,0-.57.43Z"/><path class="cls-3" d="M1193.2,1209.23c1.46,2.66,3,5.32,4.7,7.83a.8.8,0,0,0,1.35,0c1.51-2.58,3.68-5.32,4.51-8.2a.46.46,0,0,0-.74-.46c-2.15,2.08-3.55,5.2-5.12,7.79h1.35c-1.71-2.59-3.63-5-5.57-7.37-.22-.28-.64.12-.48.41Z"/><path class="cls-3" d="M1236.52,1208.44c1,1.88,2.1,3.73,3.19,5.57.45.76,1.06,2.71,2.13,2.87s1.43-1.11,1.84-1.71c1.23-1.79,2.55-3.54,3.62-5.42.36-.62-.56-1.4-1-.79-.79,1-1.49,2-2.2,3.09-.32.47-1.71,3-2.14,3s-2-2.65-2.3-3.13c-.89-1.23-1.78-2.46-2.71-3.66a.22.22,0,0,0-.39.22Z"/><path class="cls-3" d="M1279.62,1255.74A71.9,71.9,0,0,0,1273,1260a1,1,0,0,0,0,1.75c2.54,1.77,5,4.31,7.76,5.62.7.33,1.76-.41,1.19-1.17-1.89-2.54-5.32-4.44-7.91-6.2.07.53.13,1.06.2,1.59a68.8,68.8,0,0,0,5.82-5.37.32.32,0,0,0-.39-.5Z"/><path class="cls-3" d="M1279.86,1299a61.82,61.82,0,0,0-8.09,4.91,1.12,1.12,0,0,0,0,1.92l8,4.64a1.13,1.13,0,0,0,1.14-1.94c-2.66-1.54-5.32-3.09-8-4.62.08.58.15,1.16.23,1.74,2.35-2,4.95-3.91,7.14-6.12.29-.29-.07-.68-.41-.53Z"/><path class="cls-3" d="M1278.83,1340.55c-2.17,1.55-4.15,3.35-6.3,4.92a1,1,0,0,0-.21,1.61,29.51,29.51,0,0,0,7.23,6.17c1.16.72,2.34-1.1,1.18-1.82a29.78,29.78,0,0,1-6.73-5.8v1.45a39,39,0,0,0,5.56-5.92c.25-.36-.36-.87-.73-.61Z"/><path class="cls-3" d="M1150.32,1397.07a45.73,45.73,0,0,0,6.38-6.75h-1.29a50.51,50.51,0,0,1,5,6.37c.66.94,2.17.17,1.57-.84a34.61,34.61,0,0,0-5.29-6.59.93.93,0,0,0-1.29,0,67.47,67.47,0,0,0-5.72,7.36c-.25.4.3.71.63.43Z"/><path class="cls-3" d="M1106.87,1396.73a36.78,36.78,0,0,0,6.05-5.76h-1.33c1.72,1.94,3.5,4.18,5.34,6.23.87,1,2.23-.48,1.43-1.46-1.75-2.12-3.58-4.23-5.44-6.26a1,1,0,0,0-1.48.18c-1.64,2.18-3.59,4.25-5.09,6.52-.2.31.21.76.52.55Z"/><path class="cls-3" d="M1064.14,1396.88c2.53-1.9,4.9-4,7.43-5.88l-1.24-.16c1.71,2,3.51,3.92,5.18,5.94.74.9,2.07-.39,1.3-1.28-1.73-2-3.34-4.08-5-6.09a1.06,1.06,0,0,0-1.45,0,29.32,29.32,0,0,0-6.65,7c-.17.27.19.67.46.46Z"/><path class="cls-3" d="M1022.39,1396.68a81.69,81.69,0,0,0,7.14-6.27l-1.6-.2a25,25,0,0,0,4.59,6.31c.94.91,2.23-.43,1.42-1.4a35.26,35.26,0,0,1-4.25-5.93,1,1,0,0,0-1.6-.21,81.4,81.4,0,0,0-6.23,7.17c-.21.31.22.75.53.53Z"/><path class="cls-3" d="M989.82,1352.49c2.9-1,5.59-3.54,7.75-5.62a.92.92,0,0,0-.19-1.44c-2.53-1.31-4.86-2.87-7.29-4.32-.84-.5-1.89.76-1.08,1.38a50.6,50.6,0,0,0,7.43,4.52l-.19-1.44c-2.17,2.12-4.89,4.2-6.58,6.72a.14.14,0,0,0,.15.2Z"/><path class="cls-3" d="M990.4,1310.24a44.48,44.48,0,0,0,4.17-3.46c.72-.62,2.16-1.41,2.26-2.48.09-.92-.78-1.4-1.42-1.87l-5-3.72c-1-.76-2,1-1,1.72l2.83,2.08a12.92,12.92,0,0,1,1.57,1.15c.58.59.71.37.41,1.14s-1.66,1.87-2.27,2.55a26.87,26.87,0,0,0-2,2.39c-.22.29.2.7.5.5Z"/><path class="cls-3" d="M990,1267.53a35.5,35.5,0,0,0,4.52-3.06c.91-.71,2.61-1.58,2.75-2.9.12-1.14-1.06-1.91-1.79-2.63-1.42-1.41-2.83-2.84-4.3-4.2a1,1,0,0,0-1.35,1.33c.88,1,1.79,1.85,2.7,2.77.42.43,2.54,2,2.59,2.52s-2.16,2.1-2.52,2.45c-1,1-2.06,2.07-3,3.15a.36.36,0,0,0,.44.57Z"/><path class="cls-3" d="M1030,1271.23c33.41.85,66.89.34,100.31.16q44.42-.23,88.83-.46c6,0,12-.15,18-.18a.93.93,0,0,0,0-1.85c-17,.1-34,.13-51,.23q-51.27.31-102.53.76c-17.86.17-35.74.24-53.6.9a.22.22,0,0,0,0,.44Z"/><path class="cls-3" d="M1237.15,1280.5c-33.29-1.22-66.68-.89-100-.87q-44.36,0-88.71.14c-5.92,0-11.84.12-17.75.14a.92.92,0,0,0,0,1.84c16.89-.06,33.79,0,50.68-.08q51.24-.15,102.49-.28c17.76-.05,35.53,0,53.28-.45a.22.22,0,0,0,0-.44Z"/><path class="cls-3" d="M1085.29,1292.6c15.43.83,31,.44,46.45.38,13.88-.06,27.75-.07,41.63-.12,2.65,0,6.39-.1,8.53-.11a.92.92,0,0,0,0-1.84c-23.09.06-47.73.06-71.34.42-8.42.12-16.87.16-25.27.82a.23.23,0,0,0,0,.45Z"/><path class="cls-3" d="M1190.37,1338.11c-25.62-1.21-51.38-.89-77-.87q-34.38,0-68.76.14c-4.63,0-9.27.12-13.89.14a.92.92,0,0,0,0,1.84c39.38-.18,78.78-.2,118.17-.35,13.83-.06,27.68,0,41.5-.45a.23.23,0,0,0,0-.45Z"/><path class="cls-3" d="M1085.29,1348.91c15.43.84,31,.45,46.45.38,13.88,0,27.75-.06,41.63-.11,2.65,0,6.39-.1,8.53-.11a.92.92,0,0,0,0-1.84c-23.09,0-47.73.06-71.34.41-8.42.13-16.87.17-25.27.83a.22.22,0,0,0,0,.44Z"/><path class="cls-3" d="M1091,1369.18c-12.37-1.55-25.24-.89-37.68-.84-7.34,0-15.73.17-22.57.25a.92.92,0,0,0,0,1.84c6.84-.08,15.24-.09,22.57-.15,12.49-.1,25.22.44,37.68-.65a.23.23,0,0,0,0-.45Z"/><path class="cls-3" d="M1186.77,1412.85q-36.11-.3-72.22-.34-57.12-.06-114.23,0c-8.72,0-17.45.1-26.18.12-4.1,0-4.11,6.31,0,6.31,24.07,0,48.15,0,72.22,0,38.08-.07,76.15-.14,114.22-.49l26.19-.24c3.5,0,3.5-5.35,0-5.38Z"/><path class="cls-3" d="M1238.42,1413.26c-8.4-.28-16.84-.43-25.24-.41-3.5,0-3.51,5.39,0,5.38,8.4,0,16.84-.2,25.24-.52a2.23,2.23,0,0,0,0-4.45Z"/><path class="cls-3" d="M1298.33,1414.05c-11.9-.31-23.83-.84-35.74-.83-2.95,0-2.95,4.53,0,4.53,11.91,0,23.84-.58,35.74-.91a1.4,1.4,0,0,0,0-2.79Z"/><path class="cls-3" d="M973.61,1415.68c.55-7.36.88-14.75,1.09-22.12.51-17.59.81-35.2,1-52.79q.38-32.1.59-64.18c.12-18.42.14-36.83.2-55.25,0-9,.46-18.08,0-27v-.39c0-5.39-8.45-5.4-8.46,0,0,7.37,0,14.75,0,22.12q0,26.4.05,52.79,0,32.09.4,64.18.25,27.62.83,55.24c.12,6.14.36,12.27.64,18.41a64.06,64.06,0,0,0,.5,8.65c0,.12,0,.26,0,.39a1.55,1.55,0,0,0,3.1,0Z"/><path class="cls-3" d="M1296.78,1190.82c-.55,7.36-.87,14.74-1.09,22.12-.5,17.59-.8,35.19-1,52.79q-.37,32.08-.59,64.18c-.11,18.41-.14,36.83-.2,55.24,0,9-.46,18.08,0,27.06,0,.13,0,.26,0,.39,0,5.38,8.46,5.39,8.46,0,0-7.38,0-14.75,0-22.12l-.06-52.79c0-21.4-.19-42.79-.39-64.18q-.27-27.63-.83-55.25c-.12-6.14-.37-12.27-.64-18.4a67.5,67.5,0,0,0-.5-8.65,2.56,2.56,0,0,1,0-.39,1.56,1.56,0,0,0-3.11,0Z"/><path class="cls-3" d="M972.06,1192.45c10.78.29,21.56.56,32.35.75,25.77.45,51.55.48,77.33.62q46.92.26,93.84.2,40.39,0,80.81-.08c13.06,0,26.25.44,39.3-.12h.56c4.11,0,4.11-6.32,0-6.31-10.78,0-21.56-.06-32.34,0l-77.34.11q-46.9.06-93.83.35-40.41.32-80.82.76c-8.88.11-17.76.32-26.64.58-4.13.12-8.55-.18-12.66.37-.18,0-.38,0-.56,0a1.4,1.4,0,0,0,0,2.79Z"/><path class="cls-3" d="M1231.87,1399.56c16.77-1.73,29.79-18.13,31.78-33.87,2.37-18.75-8.09-35.08-25.31-42.57-9.17-4-20.24-3-29.47.39a42,42,0,0,0-21,18c-9.45,15.63-4.1,37.55,9.52,49.07a40,40,0,0,0,26.13,9.89c9.77,0,20.81-3.17,27.87-10.12,1.54-1.53-.47-4.28-2.38-3-6.7,4.32-13.46,7.88-21.54,8.79a33.61,33.61,0,0,1-22.24-4.9c-12.43-8.16-18.9-26.37-14.84-40.51,4.72-16.4,23.68-26.62,40.27-23.88,7.66,1.27,15.82,6.78,20.59,12.76a34.06,34.06,0,0,1,7.12,20.37,38.15,38.15,0,0,1-7.34,23.25c-5,7.07-11.86,11.19-19.6,14.77a.89.89,0,0,0,.45,1.66Z"/><path class="cls-3" d="M1196,1388.74c-8.34,17.87-14.88,36.59-20.61,55.44-.87,2.86,3,5,5.06,2.91,6.38-6.56,12.64-13.24,18.91-19.91l-5-1.3c2.28,8.37,3.93,17.22,7,25.34a2.79,2.79,0,0,0,5.45-.73c.08-.66,0,.13.19-.93.28-1.22.55-2.45.83-3.68q1.45-6.48,3-13c2.65-11.4,6.2-22.79,8.23-34.31a2.41,2.41,0,0,0-4.65-1.27c-4,11.1-6.13,23.2-8.83,34.67-1.38,5.87-2.3,12-4.18,17.86h5.36c-1.41-8.41-4.39-17.11-6.57-25.51a3,3,0,0,0-5-1.33c-6.36,6.59-12.73,13.15-19,19.84,1.68,1,3.37,1.93,5,2.91,5.31-18.8,11.37-37.39,17.24-56,.45-1.42-1.81-2.43-2.46-1Z"/><path class="cls-3" d="M1251.16,1388.85c6,18.94,12.16,37.83,17.64,56.92l5.06-2.92c-6.24-6.69-12.62-13.26-19-19.85a3,3,0,0,0-5,1.36c-2.19,8.4-5.16,17.1-6.57,25.51h5.36c-1.91-5.82-2.84-12.15-4.25-18.1-2.72-11.55-4.86-23.7-8.88-34.88a2.41,2.41,0,0,0-4.66,1.25c2.06,11.61,5.62,23.07,8.3,34.55q1.47,6.36,2.91,12.71l.9,4a5.23,5.23,0,0,1,.22,1.07,2.8,2.8,0,0,0,5.46.73c3-8.12,4.68-17,7-25.34l-5,1.3c6.28,6.67,12.53,13.35,18.92,19.91,2.07,2.14,6,0,5.06-2.91-5.91-19.14-12.55-38.17-21-56.35-.64-1.38-2.92-.41-2.46,1Z"/><path class="cls-3" d="M1074.59,1234.1c-13.32-5.5-26.38,18.44-11.11,22.17a13.13,13.13,0,0,0,10.1-2.07c1.66-1.08,7-7.46,9-6,.91.66,1,2.58,1.89,3.49a4.3,4.3,0,0,0,4,1.23c1.72-.36,2.68-1.8,3.7-3.05.33-.41,3.57-4.3,4.18-2.44,1,3.06,5.08,2.27,5.41-.73-.11,1,.84.79,1.9,1.36a23.57,23.57,0,0,0,2.81,1.59c2.06.79,3.45.72,5.15-.63,1.36-1.08.43-3.13-1-3.58a30.11,30.11,0,0,1-5.17-2.36,7.94,7.94,0,0,0-3.63-1c-2.53,0-5.13,1.33-5.51,3.92h5.31c-1.69-5.82-8.57-5.23-12.24-1.76a20,20,0,0,0-1.57,1.75l-.6.72c-.78.72-.23,1,1.64.83.32-.56-1.32-2.9-1.72-3.32a7.48,7.48,0,0,0-7.16-1.82c-5,1.29-11.41,12.86-17.18,7.87-2.63-2.28-1.11-6.58.55-9,2.28-3.28,6.52-5.85,10.58-4.75,1.62.44,2.13-1.82.67-2.42Z"/><path class="cls-3" d="M1124.94,1247.67c1-2.14,6.89.39,8.39.75,2.61.61,5.41,1.56,8.09,1.24,1.89-.22,3.25-3,1.09-4s-4.35-1.14-6.71-1.4a38,38,0,0,0-7.6-.52c-2.28.22-4.53,1.07-4.79,3.52a.83.83,0,0,0,1.53.41Z"/><path class="cls-3" d="M1154.1,1253c2.83-.82,3.4-4.55,3.5-7.09.09-2.32-.56-5,.53-7.2.41-.82,2.11-2.94,3.38-1.88.82.68.24,2.49.1,3.28-.5,2.84-.68,6.17,2.52,7.5,2.89,1.2,5.63-.53,6.72-3.17l-4.31.56c1.13,2.41,2.37,4.76,3.68,7.08a2.46,2.46,0,0,0,4.18,0l3.43-5.31-4.5-.58c.94,2.82,2.56,6,6,6.27a4.86,4.86,0,0,0,5.34-4.93l-3.2,2.4c5.78,1.39,12.2,1,18.12,1.37,4.56.24,9.53.51,12.5-3.53,1.82-2.48-1.93-4.67-4-3-3.06,2.43-7.93,1.41-11.56,1.27-4.48-.17-9.37.14-13.74-.88a2.54,2.54,0,0,0-3.19,2.41c0-.27-1.35-2.16-1.52-2.64a2.49,2.49,0,0,0-4.5-.47c-1.12,1.78-2.24,3.51-3.36,5.46h4.18c-1.34-2.59-2.59-4.75-3.79-7.13-1-1.94-3.67-1.23-4.3.51-.39,1-.68-.86-.7-1-.16-.85.35-2.11.43-3a6.76,6.76,0,0,0-.58-4c-1.35-2.51-4.36-3-6.86-1.95-2.72,1.18-4,3.68-4.2,6.54a47.55,47.55,0,0,0,.36,6c.14,2.53-.68,4.07-1.44,6.32a.63.63,0,0,0,.78.77Z"/><path class="cls-3" d="M1109.1,1304.79a14.59,14.59,0,0,0-11.94,7.58,1.93,1.93,0,0,0,.69,2.63,23.17,23.17,0,0,0,6.71,2.14l-.51-3.87c-2.91,1.29-5.83,3.12-6.27,6.51a5,5,0,0,0,4,5.78,8.57,8.57,0,0,0,4.32-.74,11,11,0,0,1,6.54-.48,7.65,7.65,0,0,0,4.37-.29,6,6,0,0,0,1.68-1.18,7.66,7.66,0,0,0,.92-1,2.78,2.78,0,0,1,2.13-1.29,1.6,1.6,0,0,0,1,2.35c1.93.48,3.39-.29,4.79-1.61.68-.65,1.39-2,2.25-2.37,1.71-.76,1.85,1,2.68,2.23a4.75,4.75,0,0,0,4.92,2.31c2.88-.56,5.12-5.29,7.77-1.86.66.86,2,1.58,3,.79,2.92-2.19,7.08.47,10.34.73a7.83,7.83,0,0,0,7.33-3.07c1.55-2-1.83-4.55-3.53-2.7-2.21,2.39-6.59.19-9.26-.19-2.89-.42-5.32,0-7.58,1.89h3.15c-2-2.59-4.61-4.11-7.68-2.67a23.45,23.45,0,0,0-3,2.22c-2.16,1.46-2.21.25-3.41-1.45s-3.21-2.92-5.41-2c-1.58.62-4.1,5-5.54,4.72l1,2.35a3.16,3.16,0,0,0-1-4.46c-2.1-1.33-4.45.09-6.14,1.36-3.23,2.41-6.66,0-10.32,1-1.5.4-3.25,1.78-4.47.64-1.81-1.68,2.19-3.23,3.51-3.84,2.12-1,.81-3.77-1.07-3.94a19.46,19.46,0,0,1-5.78-1.49l1.15,2.82a12.92,12.92,0,0,1,8.94-7,1.26,1.26,0,0,0-.34-2.47Z"/></svg>