<svg xmlns="http://www.w3.org/2000/svg" viewBox="0 0 1788.5 1788.52"><defs><style>.cls-1{fill:#0e47a0;}.cls-2{fill:#e5f4ff;}.cls-3{fill:#bde0fc;}.cls-4{fill:#2189e6;}.cls-5{fill:#65b6f7;}</style></defs><g id="Layer_2" data-name="Layer 2"><g id="Layer_1-2" data-name="Layer 1"><rect class="cls-1" y="142.18" width="283.5" height="1646"/><rect class="cls-1" x="1505" y="142.18" width="283.5" height="1646"/><path class="cls-1" d="M1646.5,0H142A141.75,141.75,0,0,0,.25,141.75V283.5h1788V141.75A141.75,141.75,0,0,0,1646.5,0Z"/><rect class="cls-1" x="1214.98" y="564.45" width="111.54" height="1035" transform="translate(188.8 2352.7) rotate(-90)"/><rect class="cls-1" x="783.27" y="-83.25" width="222.54" height="1035" transform="translate(460.29 1328.79) rotate(-90)"/><rect class="cls-1" x="783.27" y="1159.75" width="222.54" height="1035" transform="translate(-782.71 2571.79) rotate(-90)"/><rect class="cls-1" x="377.27" y="323.18" width="302.98" height="1465"/><polygon class="cls-2" points="1053.71 880.89 812.74 880.89 812.74 599.86 1361.64 599.86 1361.64 880.89 1282.05 880.89 1053.71 880.89"/><path class="cls-3" d="M1149.78,654.15a133.73,133.73,0,1,0,133.73,133.73A133.73,133.73,0,0,0,1149.78,654.15Z"/><path class="cls-4" d="M1264.59,863.64,1355.93,955a18,18,0,0,1,0,25.49l-8,7.95a18,18,0,0,1-25.49,0l-91.34-91.34Z"/><circle class="cls-5" cx="1150.47" cy="788.53" r="108.28"/><path class="cls-1" d="M1335.48,981.1a3.29,3.29,0,0,1-2.33-1l-74.5-74.5a3.3,3.3,0,1,1,4.66-4.66l74.5,74.5a3.29,3.29,0,0,1-2.33,5.62Z"/><rect class="cls-1" x="959.84" y="640.47" width="6.59" height="199.8"/><rect class="cls-1" x="1214.54" y="640.47" width="6.59" height="34.03"/><rect class="cls-1" x="1286.44" y="640.47" width="6.59" height="199.8"/><rect class="cls-1" x="861.04" y="640.47" width="6.59" height="199.8"/><path class="cls-1" d="M1149.78,927.09a138.05,138.05,0,0,1-83.33-27.68,140.39,140.39,0,0,1-40.66-48.17,139.25,139.25,0,1,1,124,75.85Zm0-267.46A128.25,128.25,0,1,0,1278,787.88,128.39,128.39,0,0,0,1149.78,659.63Z"/><path class="cls-1" d="M1149.78,901a113.12,113.12,0,1,1,113.11-113.11A113.24,113.24,0,0,1,1149.78,901Zm0-215.25a102.14,102.14,0,1,0,102.14,102.14A102.25,102.25,0,0,0,1149.78,685.74Z"/><path class="cls-1" d="M1335.23,999.18a23.4,23.4,0,0,1-16.62-6.88L1227.27,901l7.76-7.76,91.34,91.34a12.55,12.55,0,0,0,17.73,0l8-7.95a12.54,12.54,0,0,0,0-17.73l-91.34-91.33,7.76-7.77,91.34,91.34a23.5,23.5,0,0,1,0,33.25l-8,7.95A23.42,23.42,0,0,1,1335.23,999.18Z"/><polygon class="cls-1" points="1367.13 886.38 1282.05 886.38 1282.05 875.4 1356.15 875.4 1356.15 605.34 818.23 605.34 818.23 875.4 1053.71 875.4 1053.71 886.38 807.25 886.38 807.25 594.37 1367.13 594.37 1367.13 886.38"/><rect class="cls-1" x="875.31" y="640.47" width="10.98" height="199.8"/><rect class="cls-1" x="940.63" y="640.47" width="10.98" height="199.8"/><rect class="cls-1" x="1144.28" y="640.47" width="10.98" height="13.72"/><rect class="cls-1" x="1161.84" y="640.47" width="10.98" height="14.27"/><rect class="cls-1" x="1093.23" y="640.47" width="10.98" height="23.6"/><rect class="cls-1" x="1094.87" y="692.07" width="10.98" height="148.2"/><rect class="cls-1" x="1072.92" y="704.15" width="10.98" height="136.13"/><rect class="cls-1" x="1188.74" y="686.58" width="10.98" height="153.69"/><rect class="cls-1" x="1165.68" y="681.64" width="10.98" height="158.63"/><rect class="cls-1" x="1076.76" y="640.47" width="10.98" height="29.09"/><rect class="cls-1" x="1026.26" y="640.47" width="10.98" height="85.63"/><rect class="cls-1" x="1232.1" y="640.47" width="10.98" height="48.3"/><rect class="cls-1" x="1304.56" y="640.47" width="10.98" height="199.8"/><rect class="cls-1" x="1047.12" y="640.47" width="10.98" height="53.79"/><rect class="cls-1" x="909.89" y="640.47" width="21.96" height="199.8"/><rect class="cls-1" x="995.52" y="640.47" width="25.25" height="199.8"/><rect class="cls-1" x="1112.44" y="640.47" width="21.96" height="14.27"/><rect class="cls-1" x="1117.38" y="681.64" width="37.87" height="158.63"/><polygon class="cls-1" points="1277.11 732.83 1254.61 708.49 1254.61 640.47 1277.11 640.47 1277.11 732.83"/><path class="cls-1" d="M1316.46,1383.57c-1.41,34.76-.91,69.79-.68,104.58a.22.22,0,0,0,.44,0c1.37-34.76,1.11-69.8.84-104.58a.3.3,0,0,0-.6,0Z"/><path class="cls-1" d="M1183.35,1465.9c5.67,5,13.46,8.38,20.76,10.16a.48.48,0,0,0,.26-.93c-7.6-2.28-14-5.57-20.9-9.38-.09,0-.2.08-.12.15Z"/><path class="cls-1" d="M1254.77,1463.89c-6.8,4.46-13.71,7.76-21,11.23-.42.2-.12.88.32.75,7.53-2.14,15-6.7,21-11.69.16-.14,0-.41-.22-.29Z"/><path class="cls-1" d="M1220.78,1458.65c.09-2.7.18-5.4.08-8.1a.25.25,0,0,0-.5,0c-.11,2.7,0,5.4.08,8.1a.17.17,0,0,0,.34,0Z"/><path class="cls-1" d="M1230.57,1457c-.83-2.59-1.52-5.17-2.17-7.81-.07-.26-.53-.21-.49.07a25.63,25.63,0,0,0,2.32,7.88c.09.19.4.06.34-.14Z"/><path class="cls-1" d="M1239.24,1454.88q-2.48-4.39-5-8.76c-.1-.18-.38,0-.28.17,1.66,2.92,3.35,5.82,5,8.73.09.14.32,0,.23-.14Z"/><path class="cls-1" d="M1246.28,1449.77a70.52,70.52,0,0,1-6.21-7c-.25-.3-.77.1-.55.42a39.79,39.79,0,0,0,6.43,6.86c.23.2.56-.12.33-.33Z"/><path class="cls-1" d="M1251.09,1444.69c-2.06-1.79-4-3.73-6-5.61a.35.35,0,0,0-.5.49,31,31,0,0,0,6.09,5.63c.3.21.67-.27.39-.51Z"/><path class="cls-1" d="M1255.36,1437.62c-2.9-1.41-5.77-2.93-8.72-4.25a.41.41,0,0,0-.42.71,42.76,42.76,0,0,0,8.94,4,.26.26,0,0,0,.2-.48Z"/><path class="cls-1" d="M1258.17,1430.69c-2.73-.8-5.44-1.48-8.12-2.47-.5-.19-.86.64-.37.87a21.61,21.61,0,0,0,8.41,2.22.32.32,0,0,0,.08-.62Z"/><path class="cls-1" d="M1260.62,1421.9c-2.85-.1-5.66-.37-8.5-.55a.49.49,0,0,0-.14,1,30.17,30.17,0,0,0,8.64.35.38.38,0,0,0,0-.76Z"/><path class="cls-1" d="M1261.28,1413c-2.46.18-4.77.86-7.28.81a.55.55,0,0,0,0,1.1c2.4.08,5.37-.12,7.37-1.56.14-.1.11-.37-.09-.35Z"/><path class="cls-1" d="M1261.53,1402.94a46.3,46.3,0,0,1-9.1,1.75c-.74.07-.78,1.18,0,1.16a23.81,23.81,0,0,0,9.37-2.27c.37-.16.11-.76-.27-.64Z"/><path class="cls-1" d="M1255.77,1394.52c-2,1-4.12,2.06-6.12,3.2a.49.49,0,0,0,.5.85c2-1.16,3.92-2.43,5.84-3.69a.21.21,0,0,0-.22-.36Z"/><path class="cls-1" d="M1251.36,1388.37c-.86.76-1.72,1.52-2.57,2.29a26.74,26.74,0,0,0-2.57,2.29c-.26.31.1.89.47.61a26.4,26.4,0,0,0,2.39-2.34l2.58-2.56c.18-.19-.1-.46-.3-.29Z"/><path class="cls-1" d="M1245.67,1382.75A38.67,38.67,0,0,0,1242,1388c-.26.42.38.78.66.38a39.27,39.27,0,0,0,3.25-5.42c.07-.14-.11-.32-.23-.18Z"/><path class="cls-1" d="M1241.23,1377.42a18,18,0,0,0-2.36,2.79,26.29,26.29,0,0,0-2.33,3.34.49.49,0,0,0,.85.49c.76-1,1.37-2.14,2.06-3.22a30.81,30.81,0,0,0,2-3.21.15.15,0,0,0-.24-.19Z"/><path class="cls-1" d="M1231.69,1375.26a35,35,0,0,0-2.55,5.36.33.33,0,0,0,.59.25,35,35,0,0,0,2.25-5.49c.07-.17-.21-.29-.29-.12Z"/><path class="cls-1" d="M1223.88,1372.23a56.53,56.53,0,0,0-1.18,6.59.41.41,0,0,0,.81.11,23.76,23.76,0,0,0,.42-3.13,23.3,23.3,0,0,0,.26-3.53.16.16,0,0,0-.31,0Z"/><path class="cls-1" d="M1214.41,1374.46a31.91,31.91,0,0,0-.15,5.61.36.36,0,0,0,.72,0,31.91,31.91,0,0,0-.15-5.61.21.21,0,1,0-.42,0Z"/><path class="cls-1" d="M1203.2,1375.1a27.62,27.62,0,0,0,.71,3.09,10.1,10.1,0,0,0,.87,2.71.38.38,0,0,0,.7-.19,10.94,10.94,0,0,0-.83-2.94,28.36,28.36,0,0,0-1.07-2.83c-.11-.23-.41,0-.38.16Z"/><path class="cls-1" d="M1196,1380.39c.47,1.32,1.11,2.62,1.71,3.89.21.46.93.06.68-.39-.66-1.22-1.31-2.48-2.09-3.63-.1-.14-.36-.06-.3.13Z"/><path class="cls-1" d="M1189.23,1384.54c.57.82,1.29,1.54,1.92,2.32s1.28,1.78,2,2.57a.45.45,0,0,0,.71-.54,13.46,13.46,0,0,0-2-2.49,14.82,14.82,0,0,0-2.32-2.16c-.18-.12-.43.12-.3.3Z"/><path class="cls-1" d="M1184.34,1390c.66.57,1.38,1,2.06,1.6s1.22,1.08,1.89,1.53c.37.24.72-.28.45-.58a12.13,12.13,0,0,0-4.25-2.79c-.14-.06-.25.15-.15.24Z"/><path class="cls-1" d="M1179.52,1395.47a22.65,22.65,0,0,0,2.71,1.84,23.49,23.49,0,0,0,3.19,1.83.45.45,0,0,0,.46-.78,22.87,22.87,0,0,0-3.21-1.79,22.25,22.25,0,0,0-3-1.39.18.18,0,0,0-.18.29Z"/><path class="cls-1" d="M1178,1403.51c1.26.69,2.65,1.21,3.94,1.86.45.23.85-.44.4-.67a13.51,13.51,0,0,0-4.27-1.46.15.15,0,0,0-.07.27Z"/><path class="cls-1" d="M1175.47,1410.59a18.49,18.49,0,0,0,5.12.8.44.44,0,0,0,.12-.86,17.93,17.93,0,0,0-5.15-.55.31.31,0,0,0-.09.61Z"/><path class="cls-1" d="M1175.87,1419.05a37.57,37.57,0,0,0,6.09-.25c.44-.06.31-.73-.11-.74a36.27,36.27,0,0,0-6,.39.3.3,0,0,0,0,.6Z"/><path class="cls-1" d="M1176.83,1429.16c2,.15,4.38-.85,6.15-1.7.38-.18.11-.82-.29-.68-1.06.37-2.1.79-3.15,1.17a13.91,13.91,0,0,0-2.75,1.08.07.07,0,0,0,0,.13Z"/><path class="cls-1" d="M1180.35,1437.36a19.62,19.62,0,0,0,6.46-3.74c.29-.27-.1-.79-.43-.56a52.6,52.6,0,0,1-6.18,4c-.19.1-.06.43.15.35Z"/><path class="cls-1" d="M1185.73,1443.22a26.05,26.05,0,0,0,5.15-3.39c.29-.25-.08-.7-.4-.52a25.66,25.66,0,0,0-5,3.66c-.14.13,0,.33.2.25Z"/><path class="cls-1" d="M1191.11,1447.86a24.41,24.41,0,0,0,4.27-4.93c.14-.26-.21-.55-.42-.32-1.46,1.57-2.64,3.41-4.1,5a.18.18,0,0,0,.25.25Z"/><path class="cls-1" d="M1196.06,1452.78a18.07,18.07,0,0,0,3.52-6.17.37.37,0,0,0-.68-.29c-1.08,2-2.1,4.19-3,6.31,0,.11.09.26.2.15Z"/><path class="cls-1" d="M1204.69,1455.26a31.7,31.7,0,0,0,1.37-5,.23.23,0,0,0-.44-.12,33.24,33.24,0,0,0-1.17,5,.12.12,0,0,0,.24.06Z"/><path class="cls-1" d="M1212.49,1458.45a18.31,18.31,0,0,0,.9-7.59.36.36,0,0,0-.72,0,39.66,39.66,0,0,1-.7,7.45.27.27,0,0,0,.52.14Z"/><path class="cls-1" d="M1187.86,1409.32c-2.19,10.47,1.16,22.44,9.81,29.3,6.95,5.51,20,9.78,28.55,5.77.61-.29.17-1.2-.45-1.05-9.21,2.21-20.75-.28-28-6.58-7.74-6.74-10.8-17.5-9.72-27.41,0-.13-.19-.15-.21,0Z"/><path class="cls-1" d="M1249.2,1420.73c2.18-10.47-1.17-22.45-9.82-29.3-7-5.51-20-9.78-28.55-5.78-.61.29-.17,1.21.45,1.06,9.21-2.21,20.75.28,28,6.57,7.74,6.75,10.8,17.51,9.72,27.42,0,.12.19.15.22,0Z"/><path class="cls-1" d="M1308.89,1476v-.11a.34.34,0,0,0-.23-.4l-.14,0a.39.39,0,0,0-.48.36c.12,2.5,3.27,6,4.55,8.06,2.29,3.73,4.55,7.49,7.06,11.07.68,1,2.25.1,1.62-.94-1.9-3.11-4-6.11-6.07-9.11-1-1.41-1.94-2.8-2.92-4.2l-1.67-2.4a5,5,0,0,0-2.2-2.18.28.28,0,0,0,.47-.12Z"/><path class="cls-1" d="M1271.38,1483.94c13.71.55,27.45.46,41.18,1,1,0,1-1.46,0-1.5-13.7-.46-27.5-.85-41.18.06a.24.24,0,0,0,0,.47Z"/><path class="cls-1" d="M1313.28,1442.58c-1.21,13.56-.15,27.33-.41,40.93a.62.62,0,0,0,1.23,0c.27-13.6.23-27.34-.45-40.93a.19.19,0,0,0-.37,0Z"/><path class="cls-1" d="M1307.58,1187.89a116.76,116.76,0,0,0,17.66-16.1.79.79,0,0,0-1.12-1.11c-5.7,5.49-11.5,10.86-17.26,16.29-.47.45.17,1.32.72.92Z"/><path class="cls-1" d="M1318.43,1295.25c1.11-19.63.6-39.44.73-59.1s.19-39.39.33-59.09a.75.75,0,0,0-1.49,0q-.18,29.55-.19,59.09c0,19.67-.65,39.45.2,59.1a.21.21,0,0,0,.42,0Z"/><path class="cls-1" d="M1315.05,1246.91c.9-8.08.24-16.56.28-24.67.07-13.71.27-27.42,0-41.12a.75.75,0,0,0-1.5,0c-.19,13.7,0,27.41.15,41.12.06,8.11-.57,16.59.35,24.67a.34.34,0,0,0,.68,0Z"/><path class="cls-1" d="M1200.74,1176.85c39.25,1.34,78.56-.63,117.8.57.92,0,.9-1.48,0-1.4-9.87.8-19.64-.27-29.5-.32-9,0-18-.13-27.08-.08-20.4.14-40.82.14-61.22.84a.2.2,0,0,0,0,.39Z"/><path class="cls-1" d="M1235.1,1181.53c26.41,1.33,52.92-.57,79.33.57.93,0,.89-1.51,0-1.41-6.54.77-12.94-.25-19.46-.31-6-.05-12.11-.11-18.16-.08-13.9.07-27.83.13-41.71.84a.19.19,0,0,0,0,.39Z"/><path class="cls-1" d="M862.41,1280.46c1.37-34.14,1.8-68.53,1.63-102.7a.23.23,0,0,0-.45,0c-1.32,34.14-2,68.53-1.78,102.7a.3.3,0,0,0,.6,0Z"/><path class="cls-1" d="M962.3,1176.63c-11-.57-22.21-.21-33.27-.19-17.53,0-35.06,0-52.58.11-4.09,0-8.19.11-12.28.13a.56.56,0,0,0,0,1.11c28.62-.12,57.24-.23,85.86-.49,4.09,0,8.19,0,12.27-.29a.19.19,0,0,0,0-.38Z"/><path class="cls-1" d="M1271,1489.47c14.54,0,29.39-.14,43.75-.24a.56.56,0,0,0,0-1.11c-14.36.1-29.21.18-43.75.41a.47.47,0,0,0,0,.94Z"/><path class="cls-1" d="M1215.62,1486.47c6.73.33,13.5.19,20.24.21a.49.49,0,0,0,0-1c-6.74.07-13.51,0-20.24.38a.19.19,0,0,0,0,.38Z"/><path class="cls-1" d="M858.47,1170.74a73.34,73.34,0,0,0,12.43,19c.47.52,1.21-.23.77-.75a113.37,113.37,0,0,1-12.78-18.54c-.16-.28-.54,0-.42.24Z"/><path class="cls-1" d="M870.52,1476.53c-4.54,6.51-10.34,11.12-16.26,16.26-.48.41.13,1.12.65.84,6.56-3.49,12.34-10.57,16.06-16.84.17-.29-.26-.53-.45-.26Z"/><path class="cls-1" d="M861.5,1437.45c-.44,17.29-2.28,34.53-2.78,51.79,0,.61,1,.78,1.11.15,2.34-17,2.1-34.82,1.91-51.94a.12.12,0,0,0-.24,0Z"/><path class="cls-1" d="M865.74,1456.16c-.42,8.92-.44,17.89-.41,26.82a.51.51,0,0,0,1,0c0-8.93,0-17.9-.41-26.82a.1.1,0,0,0-.19,0Z"/><path class="cls-1" d="M954.2,1484.78c-15.11-.17-30.24.3-45.36.33s-30.26-.68-45.36-.45a.65.65,0,0,0,0,1.3c15,.94,30.29.59,45.36.55s30.29-.09,45.36-1.11a.31.31,0,0,0,0-.62Z"/><path class="cls-1" d="M913.6,1181.71c-16-.62-32.16-.24-48.19-.18a.44.44,0,0,0,0,.87c16-.05,32.17.22,48.19-.51a.09.09,0,0,0,0-.18Z"/><path class="cls-1" d="M866.64,1226.31c-.29-14.69-.7-29.27.33-44,0-.41-.63-.41-.65,0-.89,14.58-1.31,29.42.27,44,0,0,.06,0,0,0Z"/><path class="cls-1" d="M1191,1475.26c4.39,1.72,8.92,3.87,13.51,5,.51.12.9-.64.38-.89-4.29-2-9.21-3.19-13.74-4.59-.35-.11-.48.4-.15.53Z"/><path class="cls-1" d="M1250,1470.9c-5,2.58-10.15,4.95-15.23,7.39-.35.16-.1.75.26.61a98.69,98.69,0,0,0,15.31-7.42.34.34,0,0,0-.34-.58Z"/><path class="cls-1" d="M870.65,1188.48q21.75.32,43.48.52c34.81.31,69.62.32,104.42.4q63.17.15,126.32.08,54.59,0,109.17-.11,17.93,0,35.85-.07c5.64,0,11.47.4,17.09,0,.26,0,.52,0,.78,0,3,0,3-4.56,0-4.56-14.5,0-29,0-43.48,0l-104.42.13q-63.16.08-126.32.32-54.59.25-109.17.6-17.93.13-35.86.44c-5.43.09-11.72-.68-17.08.27a5.08,5.08,0,0,1-.78,0,1,1,0,0,0,0,2Z"/><path class="cls-1" d="M1170.73,1475.72q-50.85-.18-101.71-.19-80.38,0-160.77.13c-12.26,0-24.51.09-36.76.1-3,0-3,4.57,0,4.56q50.87-.06,101.72-.08,80.38-.1,160.77-.44l36.75-.19a2,2,0,0,0,0-3.89Z"/><path class="cls-1" d="M1268.06,1479.61c13.41.61,26.82.59,40.23.71,3,0,3-4.53,0-4.56-13.41-.12-26.81-.4-40.23,0a2,2,0,0,0,0,3.89Z"/><path class="cls-1" d="M1210.41,1479.61c7.6.61,15.26.75,22.88.71,3,0,3-4.45,0-4.56-7.61-.29-15.27-.4-22.88,0a2,2,0,0,0,0,3.89Z"/><path class="cls-1" d="M871.77,1477.84c1.38-32.57,1.35-65.24,1.58-97.84q.54-77.46.65-154.92,0-17.92,0-35.85c0-3.9-6.11-3.9-6.11,0q-.06,48.91,0,97.83,0,77.48.8,154.93c.12,12,.35,23.91.83,35.85a1.12,1.12,0,0,0,2.24,0Z"/><path class="cls-1" d="M1307.47,1187.18c-1.37,32.57-1.34,65.23-1.57,97.83q-.54,77.48-.65,154.93,0,17.93,0,35.85c0,3.9,6.11,3.9,6.11,0q.06-48.91,0-97.84,0-77.46-.79-154.92c-.13-12-.36-23.91-.83-35.85a1.13,1.13,0,0,0-2.25,0Z"/><path class="cls-1" d="M890.6,1209.11q19.64.3,39.27.52c31.44.32,62.89.33,94.33.42q57.32.17,114.63.1,49.17,0,98.33-.09,16.36,0,32.72-.07c5,0,10.5.57,15.51,0,.22,0,.45,0,.67,0,3,0,3-4.56,0-4.56-13.09,0-26.18,0-39.28,0l-94.33.12q-57.32.08-114.63.3-49.15.26-98.33.58-16.35.12-32.72.43c-4.82.09-10.76-.74-15.51.28a3.62,3.62,0,0,1-.66,0,1,1,0,0,0,0,2Z"/><path class="cls-1" d="M1182.29,1455.08q-49.26-.19-98.52-.21-78.39,0-156.78.1c-11.87,0-23.75.08-35.63.1-3,0-3,4.56,0,4.56q49.26-.06,98.52-.06,78.39-.1,156.78-.42l35.63-.18a2,2,0,0,0,0-3.89Z"/><path class="cls-1" d="M1261.32,1459c9,.59,18,.71,27,.66,3,0,3-4.47,0-4.56-9-.27-18-.37-27,0a2,2,0,0,0,0,3.89Z"/><path class="cls-1" d="M891.72,1457.17c1.37-27.87,1.33-55.84,1.56-83.74q.54-66.69.64-133.37,0-15.22.05-30.46c0-3.89-6.11-3.9-6.12,0q0,41.88,0,83.75,0,66.68.82,133.37c.13,10.15.35,20.31.83,30.45a1.12,1.12,0,0,0,2.24,0Z"/><path class="cls-1" d="M1286.64,1207.84c-1.36,27.88-1.33,55.85-1.56,83.75q-.54,66.69-.64,133.37,0,15.22,0,30.46c0,3.89,6.11,3.9,6.11,0q.06-41.88,0-83.75,0-66.69-.82-133.37c-.12-10.15-.35-20.31-.82-30.46a1.13,1.13,0,0,0-2.25,0Z"/><path class="cls-1" d="M1243.92,1388.42c-11.09-11.71-30.81-12.69-44.36-5-14.62,8.29-20.84,23.76-18.16,39.89,3,18.17,22.33,30.1,40,29.21,17.18-.86,31.38-16.07,33.53-32.52,2.36-18-10-37.19-28.42-41.15a1.41,1.41,0,0,0-.75,2.71c13.72,5.3,25.93,15.87,26.45,31.46.5,14.63-11,30.24-25.19,34.28-15.61,4.43-35.07-5.26-40.46-20.58a33.28,33.28,0,0,1,11.61-37.62c13.87-10.25,31-8.35,44.93.34a.65.65,0,0,0,.79-1Z"/><path class="cls-1" d="M1230.08,1449.43q3.54,7.66,7.1,15.32c1,2.19,4.28.29,3.27-1.89l-7.11-15.32c-1-2.19-4.27-.29-3.26,1.89Z"/><path class="cls-1" d="M1193.82,1370.2q3.35,7.41,6.72,14.82c1,2.19,4.25.29,3.26-1.89l-6.72-14.82c-1-2.19-4.25-.29-3.26,1.89Z"/><path class="cls-1" d="M1201.74,1445.77l-7.92,17.09c-1,2.17,2.25,4.08,3.26,1.89q4-8.54,7.93-17.09c1-2.18-2.26-4.08-3.27-1.89Z"/><path class="cls-1" d="M1237.18,1368.31q-2.94,6.53-5.91,13c-1,2.18,2.27,4.08,3.27,1.89l5.91-13c1-2.18-2.27-4.08-3.27-1.89Z"/><path class="cls-1" d="M1185.09,1428.8l-16.68,7.58c-2.2,1-.28,4.23,1.91,3.23L1187,1432c2.21-1,.29-4.23-1.91-3.24Z"/><path class="cls-1" d="M1264.89,1394.39l-13.77,6.12c-2.22,1-.3,4.21,1.91,3.23l13.77-6.12c2.21-1,.29-4.21-1.91-3.23Z"/><path class="cls-1" d="M1185.21,1400.22l-14.89-6.76c-2.19-1-4.12,2.22-1.91,3.23l14.89,6.76c2.2,1,4.12-2.23,1.91-3.23Z"/><path class="cls-1" d="M1265.85,1436.38l-14.37-6.39c-2.2-1-4.12,2.25-1.91,3.23l14.37,6.39c2.2,1,4.13-2.25,1.91-3.23Z"/><path class="cls-1" d="M1192.38,1438.86l-13.21,13.52c-1.69,1.73,1,4.38,2.68,2.64q6.6-6.75,13.21-13.51c1.69-1.73-1-4.38-2.68-2.65Z"/><path class="cls-1" d="M1252.42,1378l-10.59,10.65a1.89,1.89,0,0,0,2.68,2.65q5.28-5.34,10.58-10.65a1.88,1.88,0,0,0-2.67-2.65Z"/><path class="cls-1" d="M1182.53,1412.87l-17.78-1c-2.43-.14-2.42,3.6,0,3.75q8.89.51,17.78,1c2.43.14,2.42-3.6,0-3.74Z"/><path class="cls-1" d="M1269.51,1417.48l-14.51-.72c-2.43-.12-2.42,3.62,0,3.74l14.51.72c2.43.12,2.43-3.62,0-3.74Z"/><path class="cls-1" d="M1193.16,1390.68,1180.91,1379c-1.75-1.67-4.42,1-2.67,2.65q6.13,5.85,12.25,11.72c1.74,1.68,4.42-1,2.67-2.65Z"/><path class="cls-1" d="M1256,1451.45l-12.16-11.83c-1.74-1.69-4.41,1-2.68,2.64l12.17,11.84c1.74,1.69,4.41-.95,2.67-2.65Z"/><path class="cls-1" d="M1221,1379.67q.45-7.49.89-15c.14-2.4-3.64-2.4-3.78,0q-.45,7.5-.89,15c-.14,2.41,3.64,2.4,3.78,0Z"/><path class="cls-1" d="M1218.07,1468.37q.45-9.13.92-18.27c.13-2.41-3.65-2.4-3.78,0q-.46,9.14-.92,18.27c-.12,2.41,3.66,2.4,3.78,0Z"/><path class="cls-1" d="M1188.1,1434.09l-15,10.4c-2,1.37-.09,4.62,1.9,3.23q7.52-5.21,15-10.4c2-1.37.09-4.62-1.91-3.23Z"/><path class="cls-1" d="M1259.29,1385.34l-11.9,8.09c-2,1.36-.1,4.6,1.91,3.23l11.9-8.09c2-1.35.1-4.6-1.91-3.23Z"/><path class="cls-1" d="M1183.26,1406.25l-16.5-4.18c-2.36-.59-3.36,3-1,3.61l16.5,4.18c2.36.6,3.36-3,1-3.61Z"/><path class="cls-1" d="M1268.51,1427.38l-15.29-3.73c-2.36-.58-3.37,3-1,3.6l15.29,3.74c2.37.57,3.37-3,1-3.61Z"/><path class="cls-1" d="M1198.65,1386.73l-9.77-13.81c-1.38-2-4.66-.09-3.26,1.89q4.89,6.9,9.76,13.81c1.38,2,4.66.1,3.27-1.89Z"/><path class="cls-1" d="M1248.65,1458.26l-10-14.46c-1.37-2-4.65-.1-3.26,1.89l10,14.46c1.37,2,4.65.1,3.27-1.89Z"/><path class="cls-1" d="M1228,1381.13q1.86-7.23,3.73-14.45c.6-2.34-3-3.33-3.65-1q-1.86,7.23-3.73,14.45c-.6,2.34,3,3.33,3.65,1Z"/><path class="cls-1" d="M1207.12,1468.32q2.27-9.15,4.56-18.29c.58-2.34-3.06-3.33-3.65-1l-4.56,18.28c-.58,2.34,3.06,3.34,3.65,1Z"/><path class="cls-1" d="M1183,1420.62l-18,3.28c-2.39.44-1.38,4,1,3.61l18-3.28c2.39-.43,1.38-4-1-3.61Z"/><path class="cls-1" d="M1268.26,1405.55l-14.87,2.58c-2.39.42-1.38,4,1,3.61l14.86-2.58c2.4-.41,1.38-4-1-3.61Z"/><path class="cls-1" d="M1189.15,1394.7l-13.86-9.81c-2-1.4-3.87,1.84-1.9,3.23q6.91,4.92,13.85,9.81c2,1.4,3.87-1.84,1.91-3.23Z"/><path class="cls-1" d="M1260.88,1444.94q-7-4.85-14-9.71c-2-1.39-3.89,1.86-1.91,3.23l14,9.71c2,1.39,3.89-1.85,1.91-3.23Z"/><path class="cls-1" d="M1211.87,1381q-1.65-7.93-3.31-15.87c-.5-2.36-4.14-1.36-3.65,1q1.66,7.93,3.31,15.88c.49,2.36,4.14,1.36,3.65-1Z"/><path class="cls-1" d="M1229.36,1466.92q-1.72-8.6-3.45-17.2c-.47-2.36-4.11-1.36-3.64,1q1.73,8.61,3.44,17.21c.47,2.36,4.12,1.36,3.65-1Z"/><path class="cls-1" d="M1240.72,1386.72l8.38-11.6c1.42-2-1.86-3.83-3.26-1.89l-8.39,11.61c-1.42,2,1.86,3.83,3.27,1.88Z"/><path class="cls-1" d="M1188.43,1459.83q5.46-7.71,10.94-15.41c1.41-2-1.87-3.84-3.26-1.89q-5.49,7.71-10.95,15.41c-1.4,2,1.88,3.85,3.27,1.89Z"/><path class="cls-1" d="M871.34,1188c6,7.16,12.46,14,18.86,20.86a1.54,1.54,0,0,0,2.14,0c2-2.29,3.94-4.75,6.06-6.95,5.83-6.05,10.53-.79,14.75,3.45,1.84,1.84,3.36,3.7,5.86,1.66,3-2.48,5.43-6.69,7.86-9.74,2.57-3.22,5.09-6.5,7.63-9.75.86-1.11-1.07-2.6-2-1.51-3.15,3.81-6.29,7.62-9.38,11.47-1.25,1.57-4.85,7.59-6.57,7.39-.83-.1-3-3-3.66-3.67a21.16,21.16,0,0,0-3.76-3.25c-8.4-5-14.17,3.23-19,8.78h2.14c-6.47-6.72-13-13.52-19.88-19.86a.79.79,0,0,0-1.12,1.12Z"/><path class="cls-1" d="M932.85,1188c6,7.16,12.46,14,18.86,20.86a1.54,1.54,0,0,0,2.14,0c2-2.29,3.95-4.75,6.07-6.95,5.82-6.05,10.53-.79,14.75,3.45,1.83,1.84,3.36,3.7,5.85,1.66,3-2.48,5.43-6.69,7.86-9.74,2.58-3.22,5.1-6.5,7.63-9.75.86-1.11-1.07-2.6-2-1.51-3.14,3.81-6.29,7.62-9.38,11.47-1.25,1.57-4.85,7.59-6.56,7.39-.84-.1-3-3-3.67-3.67a20.81,20.81,0,0,0-3.76-3.25c-8.39-5-14.16,3.23-19,8.78h2.14c-6.47-6.72-13-13.52-19.87-19.86a.8.8,0,0,0-1.13,1.12Z"/><path class="cls-1" d="M994.36,1188c6,7.16,12.47,14,18.86,20.86a1.56,1.56,0,0,0,2.15,0c2-2.29,3.94-4.75,6.06-6.95,5.82-6.05,10.53-.79,14.75,3.45,1.83,1.84,3.36,3.7,5.85,1.66,3-2.48,5.43-6.69,7.87-9.74,2.57-3.22,5.09-6.5,7.62-9.75.87-1.11-1.07-2.6-2-1.51-3.14,3.81-6.29,7.62-9.37,11.47-1.26,1.57-4.86,7.59-6.57,7.39-.84-.1-3-3-3.67-3.67a20.75,20.75,0,0,0-3.75-3.25c-8.4-5-14.17,3.23-19,8.78h2.15c-6.47-6.72-13-13.52-19.88-19.86a.8.8,0,0,0-1.13,1.12Z"/><path class="cls-1" d="M1055.88,1188c6,7.16,12.46,14,18.86,20.86a1.54,1.54,0,0,0,2.14,0c2-2.29,3.94-4.75,6.06-6.95,5.83-6.05,10.53-.79,14.75,3.45,1.84,1.84,3.36,3.7,5.86,1.66,3-2.48,5.43-6.69,7.86-9.74,2.57-3.22,5.09-6.5,7.63-9.75.86-1.11-1.07-2.6-2-1.51-3.15,3.81-6.29,7.62-9.38,11.47-1.26,1.57-4.86,7.59-6.57,7.39-.84-.1-3-3-3.66-3.67a21.16,21.16,0,0,0-3.76-3.25c-8.4-5-14.17,3.23-19,8.78h2.14c-6.47-6.72-13-13.52-19.88-19.86a.79.79,0,0,0-1.12,1.12Z"/><path class="cls-1" d="M1118.68,1188c6,7.16,12.47,14,18.86,20.86a1.54,1.54,0,0,0,2.14,0c2-2.29,4-4.75,6.07-6.95,5.82-6.05,10.53-.79,14.75,3.45,1.83,1.84,3.36,3.7,5.85,1.66,3-2.48,5.43-6.69,7.86-9.74,2.58-3.22,5.1-6.5,7.63-9.75.87-1.11-1.07-2.6-2-1.51-3.14,3.81-6.29,7.62-9.38,11.47-1.25,1.57-4.85,7.59-6.56,7.39-.84-.1-3-3-3.67-3.67a20.75,20.75,0,0,0-3.75-3.25c-8.4-5-14.17,3.23-19,8.78h2.14c-6.47-6.72-13-13.52-19.87-19.86a.8.8,0,0,0-1.13,1.12Z"/><path class="cls-1" d="M1180.2,1188c6,7.16,12.46,14,18.86,20.86a1.54,1.54,0,0,0,2.14,0c2-2.29,3.94-4.75,6.06-6.95,5.82-6.05,10.53-.79,14.75,3.45,1.83,1.84,3.36,3.7,5.86,1.66,3-2.48,5.43-6.69,7.86-9.74,2.57-3.22,5.09-6.5,7.63-9.75.86-1.11-1.07-2.6-2-1.51-3.14,3.81-6.29,7.62-9.37,11.47-1.26,1.57-4.86,7.59-6.57,7.39-.84-.1-3-3-3.66-3.67a21.16,21.16,0,0,0-3.76-3.25c-8.4-5-14.17,3.23-19,8.78h2.14c-6.47-6.72-13-13.52-19.88-19.86a.79.79,0,0,0-1.12,1.12Z"/><path class="cls-1" d="M1241.71,1188c5.77,7.16,12,14,18.21,20.86a1.55,1.55,0,0,0,2.15,0c2-2.3,3.79-4.91,5.93-7,5.84-5.8,10.24-.41,14.4,3.83,2,2,3.32,3.12,5.75,1,2.91-2.51,5.26-6.44,7.75-9.4,2.69-3.19,5.3-6.43,7.83-9.75.85-1.12-1.08-2.61-2-1.51-2.92,3.61-6,7.1-9,10.64-1,1.16-5.66,8.31-7.19,8.31-.75,0-3.1-3.2-3.64-3.75a23.69,23.69,0,0,0-3.1-2.91c-8.2-5.8-14.26,2.85-18.93,8.43h2.15c-6.26-6.72-12.59-13.52-19.23-19.86-.76-.72-1.76.34-1.13,1.12Z"/><path class="cls-1" d="M1308,1210c-7.24,5.93-14.2,12.34-21.07,18.67a1.49,1.49,0,0,0,0,2.12c2.31,2,4.79,3.9,7,6,6.1,5.76.8,10.42-3.49,14.6-1.86,1.81-3.74,3.32-1.67,5.79,2.5,3,6.75,5.38,9.83,7.78,3.26,2.55,6.57,5,9.86,7.55,1.12.86,2.62-1.06,1.52-2-3.85-3.11-7.69-6.22-11.59-9.28-1.58-1.24-7.66-4.8-7.46-6.5.1-.83,3.07-3,3.7-3.62a21.09,21.09,0,0,0,3.29-3.72c5.08-8.31-3.27-14-8.87-18.77v2.12c6.79-6.41,13.66-12.89,20.06-19.67A.8.8,0,0,0,1308,1210Z"/><path class="cls-1" d="M1308,1272.18c-7.24,5.93-14.2,12.34-21.07,18.67a1.49,1.49,0,0,0,0,2.12c2.31,2,4.79,3.9,7,6,6.1,5.76.8,10.42-3.49,14.6-1.86,1.81-3.74,3.33-1.67,5.79,2.5,3,6.75,5.38,9.83,7.78,3.26,2.55,6.57,5,9.86,7.55,1.12.86,2.62-1,1.52-2-3.85-3.11-7.69-6.22-11.59-9.28-1.58-1.24-7.66-4.8-7.46-6.5.1-.83,3.07-3,3.7-3.62a21.09,21.09,0,0,0,3.29-3.72c5.08-8.31-3.27-14-8.87-18.77V1293c6.79-6.41,13.66-12.89,20.06-19.67a.8.8,0,0,0-1.13-1.12Z"/><path class="cls-1" d="M1308,1333.06c-7.24,5.93-14.2,12.34-21.07,18.67a1.49,1.49,0,0,0,0,2.12c2.31,2,4.79,3.9,7,6,6.1,5.77.8,10.43-3.49,14.6-1.86,1.81-3.74,3.33-1.67,5.8,2.5,3,6.75,5.37,9.83,7.78,3.26,2.54,6.57,5,9.86,7.55,1.12.85,2.62-1.06,1.52-1.95-3.85-3.12-7.69-6.23-11.59-9.29-1.58-1.24-7.66-4.8-7.46-6.49.1-.83,3.07-3,3.7-3.63a21.09,21.09,0,0,0,3.29-3.72c5.08-8.31-3.27-14-8.87-18.77v2.12c6.79-6.4,13.66-12.88,20.06-19.67a.8.8,0,0,0-1.13-1.12Z"/><path class="cls-1" d="M1308,1394.88c-7.24,5.93-14.2,12.34-21.07,18.67a1.5,1.5,0,0,0,0,2.12c2.31,2,4.79,3.9,7,6,6.11,5.77.8,10.43-3.48,14.6-1.85,1.81-3.75,3.33-1.67,5.79,2.42,2.87,6.29,5.21,9.15,7.67,3.36,2.88,6.78,5.7,10.28,8.41,1.25,1,3-.73,1.78-1.76-3.65-3-7.17-6.13-10.75-9.19-1.22-1-8.43-5.81-8.4-7.43,0-.81,3.21-3.14,3.8-3.73a25.13,25.13,0,0,0,2.94-3.16c5.82-8.32-2.8-14.47-8.52-19.32v2.12c6.78-6.41,13.66-12.89,20.06-19.67a.8.8,0,0,0-1.13-1.12Z"/><path class="cls-1" d="M870,1211.14c6.4,6.78,13.28,13.26,20.06,19.67v-2.12c-5.6,4.75-14,10.44-8.87,18.77a21.5,21.5,0,0,0,3.29,3.72c.76.75,3.59,2.68,3.7,3.62.19,1.54-6.15,5.47-7.46,6.5-3.89,3.06-7.74,6.17-11.59,9.28-1.09.88.39,2.82,1.52,2,3.05-2.32,6.11-4.62,9.13-7,3.22-2.51,7.55-5,10.22-8,2.31-2.65.85-4-1.33-6.11-4.26-4.15-9.58-8.82-3.53-14.56,2.23-2.12,4.74-4,7.07-6a1.5,1.5,0,0,0,0-2.12c-6.88-6.33-13.84-12.74-21.08-18.67a.8.8,0,0,0-1.13,1.12Z"/><path class="cls-1" d="M870,1273.3c6.4,6.78,13.28,13.26,20.06,19.67v-2.12c-5.6,4.75-14,10.44-8.87,18.77a21.5,21.5,0,0,0,3.29,3.72c.76.75,3.59,2.68,3.7,3.62.19,1.54-6.15,5.47-7.46,6.5-3.89,3.06-7.74,6.17-11.59,9.28-1.09.89.39,2.82,1.52,2,3.05-2.32,6.11-4.62,9.13-7,3.22-2.51,7.55-5,10.22-8,2.31-2.65.85-4-1.33-6.11-4.26-4.15-9.58-8.82-3.53-14.56,2.23-2.12,4.74-4,7.07-6a1.5,1.5,0,0,0,0-2.12c-6.88-6.33-13.84-12.74-21.08-18.67a.8.8,0,0,0-1.13,1.12Z"/><path class="cls-1" d="M870,1334.18c6.4,6.79,13.28,13.27,20.06,19.67v-2.12c-5.6,4.75-14,10.45-8.87,18.77a21.5,21.5,0,0,0,3.29,3.72c.76.75,3.59,2.68,3.7,3.63.19,1.53-6.15,5.46-7.46,6.49-3.89,3.06-7.74,6.17-11.59,9.29-1.09.88.39,2.81,1.52,1.95,3.05-2.33,6.11-4.63,9.13-7,3.22-2.51,7.55-5,10.22-8,2.31-2.65.85-4-1.33-6.11-4.26-4.15-9.58-8.81-3.53-14.56,2.23-2.12,4.74-4,7.07-6a1.5,1.5,0,0,0,0-2.12c-6.88-6.33-13.84-12.74-21.08-18.67a.8.8,0,0,0-1.13,1.12Z"/><path class="cls-1" d="M870,1396c6.4,6.79,13.27,13.26,20.06,19.67v-2.12c-5.59,4.74-13.95,10.47-8.87,18.77a20.74,20.74,0,0,0,3.29,3.72c.76.76,3.59,2.67,3.7,3.62.18,1.46-5.88,5.44-7.15,6.5-3.66,3.08-7.24,6.25-10.95,9.28-1.26,1,.52,2.72,1.77,1.76q5-3.85,9.81-7.93c2.58-2.18,7.13-4.7,9-7.52,1.69-2.51-.59-4.1-2.31-5.77-4.23-4.12-9.15-8.68-3.19-14.31,2.23-2.1,4.71-4,7-6a1.5,1.5,0,0,0,0-2.12c-6.88-6.33-13.84-12.74-21.08-18.67A.8.8,0,0,0,870,1396Z"/><path class="cls-1" d="M872.46,1477.88c6.86-6.33,13.41-13.13,19.88-19.85H890.2c4.8,5.55,10.55,13.82,19,8.78a20.82,20.82,0,0,0,3.76-3.26c.76-.75,2.71-3.55,3.66-3.66,1.55-.18,5.53,6.09,6.57,7.39,3.09,3.85,6.23,7.66,9.38,11.47.89,1.08,2.84-.39,2-1.51-2.35-3-4.68-6-7-9-2.53-3.19-5-7.47-8.12-10.12-2.68-2.29-4-.83-6.18,1.32-4.19,4.22-8.9,9.48-14.71,3.49-2.14-2.2-4.06-4.69-6.1-7a1.53,1.53,0,0,0-2.14,0c-6.4,6.81-12.88,13.69-18.86,20.86a.79.79,0,0,0,1.12,1.11Z"/><path class="cls-1" d="M934,1477.88c6.85-6.33,13.4-13.13,19.87-19.85h-2.14c4.8,5.55,10.55,13.82,19,8.78a20.48,20.48,0,0,0,3.76-3.26c.77-.75,2.71-3.55,3.67-3.66,1.55-.18,5.52,6.09,6.56,7.39,3.09,3.85,6.24,7.66,9.38,11.47.89,1.08,2.84-.39,2-1.51-2.35-3-4.67-6-7-9-2.53-3.19-5-7.47-8.12-10.12-2.68-2.29-4-.83-6.17,1.32-4.2,4.22-8.91,9.48-14.71,3.49-2.14-2.2-4.07-4.69-6.11-7a1.53,1.53,0,0,0-2.14,0c-6.4,6.81-12.87,13.69-18.86,20.86a.79.79,0,0,0,1.13,1.11Z"/><path class="cls-1" d="M995.49,1477.88c6.86-6.33,13.41-13.13,19.88-19.85h-2.15c4.8,5.55,10.56,13.82,19,8.78a20.42,20.42,0,0,0,3.75-3.26c.77-.75,2.72-3.55,3.67-3.66,1.55-.18,5.53,6.09,6.57,7.39,3.08,3.85,6.23,7.66,9.37,11.47.89,1.08,2.85-.39,2-1.51-2.34-3-4.67-6-7-9-2.54-3.19-5-7.47-8.13-10.12-2.67-2.29-4-.83-6.17,1.32-4.19,4.22-8.91,9.48-14.71,3.49-2.14-2.2-4.06-4.69-6.1-7a1.55,1.55,0,0,0-2.15,0c-6.39,6.81-12.87,13.69-18.86,20.86a.79.79,0,0,0,1.13,1.11Z"/><path class="cls-1" d="M1057,1477.88c6.86-6.33,13.41-13.13,19.88-19.85h-2.14c4.8,5.55,10.55,13.82,19,8.78a20.82,20.82,0,0,0,3.76-3.26c.76-.75,2.71-3.55,3.66-3.66,1.55-.18,5.53,6.09,6.57,7.39,3.09,3.85,6.23,7.66,9.38,11.47.89,1.08,2.84-.39,2-1.51-2.35-3-4.68-6-7-9-2.53-3.19-5-7.47-8.12-10.12-2.68-2.29-4-.83-6.18,1.32-4.19,4.22-8.9,9.48-14.71,3.49-2.14-2.2-4.06-4.69-6.1-7a1.53,1.53,0,0,0-2.14,0c-6.4,6.81-12.88,13.69-18.86,20.86a.79.79,0,0,0,1.12,1.11Z"/><path class="cls-1" d="M1119.81,1477.88c6.88-6.31,13.41-13.12,19.89-19.83h-2.17c4.65,5.39,10.94,13.79,19,8.83a21,21,0,0,0,3.72-3.32c.74-.74,2.74-3.58,3.66-3.66,1.77-.17,7.72,9.12,9,10.71.89,1.08,2.84-.38,2-1.51-2.61-3.38-5-8.17-8.25-11-2.65-2.34-4.07-.81-6.18,1.32-4.16,4.18-9,9.47-14.81,3.59-2.15-2.18-4-4.81-6-7.11a1.56,1.56,0,0,0-2.17,0c-6.4,6.82-12.88,13.69-18.85,20.88a.79.79,0,0,0,1.13,1.11Z"/><path class="cls-1" d="M1261.9,1457.37c4.21,5.9,10.38,14.69,18.69,9.63a18.61,18.61,0,0,0,3.72-3.37c.56-.6,2.74-3.84,3.54-3.88,2-.1,6.44,7,7.65,8.35,3.1,3.55,6.25,7.05,9.29,10.65.9,1.06,2.84-.39,2-1.51q-3.63-4.65-7.51-9.08c-2.76-3.14-5.41-7.4-8.65-10-2.49-2-3.7-.89-5.79,1-4.38,4-9.31,9.4-15.21,4-2.28-2.09-4.18-4.6-6.45-6.73-.63-.59-1.8.2-1.25,1Z"/><path class="cls-1" d="M926.25,1197.55c-.56,1,1.66,3.22,2.2,3.92,1.34,1.76,2.69,3.51,4,5.26a1.28,1.28,0,0,0,2,.25,51.21,51.21,0,0,0,7.86-10.35c.23-.45-.28-1.13-.77-.76a52.26,52.26,0,0,0-9,9.62l2-.25c-.78-.86-7.7-8.61-8.19-7.69Z"/><path class="cls-1" d="M987.21,1197.35c2.24,3.47,5.47,6.11,7.6,9.66a1.13,1.13,0,0,0,1.91,0c2.36-3,5.07-5.89,7.1-9.15.86-1.37-1.21-2.55-2.14-1.31-2.28,3.07-4.92,6.4-6.87,9.2h1.91c-2.58-2.8-6.11-5.72-9-8.88-.26-.28-.74.16-.54.48Z"/><path class="cls-1" d="M1048.09,1196.48a57.36,57.36,0,0,0,7.51,11,1.21,1.21,0,0,0,1.69,0c2.87-3.61,6.17-7.11,8.66-11a1,1,0,0,0-1.6-1.26,100.72,100.72,0,0,0-8.75,10.51h1.69a64.72,64.72,0,0,0-8.62-9.76c-.31-.3-.75.12-.58.49Z"/><path class="cls-1" d="M1110.53,1196.62a54.74,54.74,0,0,0,6.43,9.72c.85,1.1,1.68,1.82,3,.88s2.26-3,3.22-4.31a46.27,46.27,0,0,0,4.27-6.49c.35-.65-.52-1.41-1.06-.82a66.48,66.48,0,0,0-6.66,7.87c-.58.88-.46,1.63-.92,1.42s-1-1.29-1.34-1.67c-2-2.42-3.83-5.16-6.18-7.22a.52.52,0,0,0-.81.62Z"/><path class="cls-1" d="M1173.46,1196.64c2.12,3.84,4.32,7.68,6.8,11.31a1.15,1.15,0,0,0,1.94,0c2.18-3.73,5.33-7.69,6.51-11.84a.66.66,0,0,0-1.06-.68c-3.11,3-5.13,7.52-7.39,11.26h1.94a132.68,132.68,0,0,0-8-10.65c-.32-.4-.92.18-.69.6Z"/><path class="cls-1" d="M1236.07,1195.49c1.46,2.73,3,5.39,4.61,8.06.64,1.09,1.53,3.91,3.07,4.14,1.33.19,2.07-1.6,2.67-2.47,1.76-2.58,3.67-5.12,5.23-7.83.52-.9-.81-2-1.51-1.15-1.15,1.43-2.15,3-3.18,4.47-.47.68-2.46,4.3-3.09,4.27s-2.83-3.82-3.33-4.51c-1.28-1.78-2.57-3.56-3.91-5.3-.25-.32-.77-.05-.56.32Z"/><path class="cls-1" d="M1298.35,1263.84a105.85,105.85,0,0,0-9.63,6.2,1.48,1.48,0,0,0,0,2.53c3.67,2.55,7.19,6.22,11.21,8.12,1,.47,2.54-.6,1.72-1.7-2.73-3.67-7.68-6.41-11.44-9l.3,2.3a104.72,104.72,0,0,0,8.41-7.76.47.47,0,0,0-.57-.74Z"/><path class="cls-1" d="M1298.71,1326.41c-4.13,1.87-7.93,4.62-11.7,7.1a1.62,1.62,0,0,0,0,2.77c3.84,2.25,7.7,4.47,11.54,6.71a1.63,1.63,0,0,0,1.66-2.81c-3.85-2.22-7.7-4.46-11.57-6.67l.33,2.52c3.4-3,7.16-5.66,10.33-8.86.4-.41-.11-1-.59-.76Z"/><path class="cls-1" d="M1297.22,1386.42c-3.14,2.23-6,4.83-9.11,7.11a1.5,1.5,0,0,0-.3,2.32,42.52,42.52,0,0,0,10.44,8.92c1.68,1,3.38-1.59,1.71-2.63a42.79,42.79,0,0,1-9.72-8.37v2.08a57.1,57.1,0,0,0,8-8.55c.36-.52-.53-1.26-1-.88Z"/><path class="cls-1" d="M1111.49,1468.09a66.09,66.09,0,0,0,9.22-9.75h-1.87a73,73,0,0,1,7.25,9.21c1,1.36,3.14.25,2.27-1.22a49.64,49.64,0,0,0-7.65-9.51,1.34,1.34,0,0,0-1.87,0,98.62,98.62,0,0,0-8.26,10.64c-.36.58.43,1,.91.61Z"/><path class="cls-1" d="M1048.7,1467.61c3.33-2.23,6.13-5.53,8.75-8.33h-1.93c2.48,2.8,5.06,6,7.71,9,1.27,1.42,3.23-.69,2.07-2.11-2.52-3.07-5.17-6.12-7.85-9a1.39,1.39,0,0,0-2.14.25c-2.38,3.14-5.19,6.14-7.36,9.42-.3.45.3,1.1.75.8Z"/><path class="cls-1" d="M987,1467.82c3.65-2.73,7.07-5.75,10.73-8.49l-1.79-.23c2.46,2.89,5.07,5.66,7.48,8.59,1.07,1.3,3-.58,1.88-1.86-2.5-2.87-4.82-5.89-7.27-8.8a1.53,1.53,0,0,0-2.09,0,42.41,42.41,0,0,0-9.61,10.13c-.24.39.27,1,.67.66Z"/><path class="cls-1" d="M926.61,1467.53c3.7-2.64,7-6,10.32-9l-2.32-.3a36.33,36.33,0,0,0,6.64,9.13c1.35,1.3,3.22-.63,2-2a50.67,50.67,0,0,1-6.13-8.57,1.5,1.5,0,0,0-2.32-.3c-3,3.37-6.39,6.66-9,10.36a.56.56,0,0,0,.76.76Z"/><path class="cls-1" d="M879.54,1403.67c4.19-1.41,8.08-5.11,11.19-8.12a1.34,1.34,0,0,0-.27-2.09c-3.65-1.89-7-4.13-10.53-6.23-1.22-.72-2.73,1.09-1.56,2a73.76,73.76,0,0,0,10.74,6.53l-.28-2.09c-3.13,3.07-7.07,6.08-9.51,9.72a.19.19,0,0,0,.22.28Z"/><path class="cls-1" d="M880.38,1342.61a66.78,66.78,0,0,0,6-5c1-.9,3.12-2,3.26-3.6.12-1.32-1.13-2-2-2.69-2.41-1.8-4.83-3.58-7.25-5.37-1.49-1.11-2.94,1.38-1.46,2.47l4.09,3a20.71,20.71,0,0,1,2.27,1.67c.84.85,1,.52.58,1.64s-2.4,2.71-3.28,3.68a41.73,41.73,0,0,0-2.92,3.46c-.31.42.3,1,.73.72Z"/><path class="cls-1" d="M879.82,1280.89a52,52,0,0,0,6.53-4.42c1.31-1,3.76-2.29,4-4.19.18-1.65-1.52-2.77-2.57-3.8-2.06-2-4.09-4.11-6.22-6.08a1.37,1.37,0,0,0-1.95,1.93c1.27,1.37,2.59,2.68,3.9,4,.6.62,3.66,2.93,3.74,3.64s-3.12,3-3.64,3.54c-1.5,1.49-3,3-4.4,4.56a.53.53,0,0,0,.65.82Z"/><path class="cls-1" d="M937.67,1286.24c48.28,1.22,96.67.48,145,.23q64.2-.33,128.38-.67c8.66,0,17.32-.21,26-.26a1.33,1.33,0,0,0,0-2.66c-24.56.14-49.12.17-73.68.32q-74.08.46-148.17,1.1c-25.82.24-51.66.35-77.46,1.3a.32.32,0,0,0,0,.64Z"/><path class="cls-1" d="M1237,1299.63c-48.11-1.76-96.37-1.28-144.51-1.25q-64.1,0-128.2.2c-8.55,0-17.11.17-25.66.2a1.33,1.33,0,0,0,0,2.66c24.41-.09,48.83,0,73.25-.12q74.05-.21,148.11-.4c25.67-.07,51.35,0,77-.65a.32.32,0,0,0,0-.64Z"/><path class="cls-1" d="M1017.51,1317.11c22.3,1.21,44.81.64,67.13.55,20.06-.08,40.11-.09,60.16-.17,3.83,0,9.23-.14,12.34-.15a1.33,1.33,0,0,0,0-2.66c-33.37.08-69,.09-103.1.6-12.17.18-24.39.24-36.53,1.19a.32.32,0,0,0,0,.64Z"/><path class="cls-1" d="M1169.37,1382.89c-37-1.75-74.25-1.28-111.31-1.25q-49.69,0-99.37.2c-6.69,0-13.39.17-20.08.2a1.33,1.33,0,0,0,0,2.66c56.93-.27,113.86-.29,170.79-.51,20-.08,40,0,60-.65a.33.33,0,0,0,0-.65Z"/><path class="cls-1" d="M1017.51,1398.5c22.3,1.21,44.81.64,67.13.55,20.06-.08,40.11-.09,60.16-.17,3.83,0,9.23-.14,12.34-.15a1.33,1.33,0,0,0,0-2.66c-33.37.08-69,.09-103.1.6-12.17.18-24.39.24-36.53,1.19a.32.32,0,0,0,0,.64Z"/><path class="cls-1" d="M1025.68,1427.8c-17.87-2.24-36.47-1.3-54.45-1.22-10.6.05-22.73.24-32.62.37a1.33,1.33,0,0,0,0,2.66c9.89-.13,22-.14,32.62-.22,18.06-.14,36.46.62,54.45-1a.32.32,0,0,0,0-.64Z"/><path class="cls-1" d="M1164.17,1490.9q-52.18-.42-104.37-.49-82.54-.08-165.08.08c-12.61,0-25.23.15-37.84.16-5.93,0-5.94,9.13,0,9.13,34.79,0,69.58,0,104.37,0,55-.09,110-.2,165.08-.7,12.61-.12,25.22-.21,37.84-.35,5-.06,5.06-7.74,0-7.78Z"/><path class="cls-1" d="M1238.82,1491.5c-12.14-.41-24.34-.62-36.49-.6-5,0-5.06,7.79,0,7.78,12.15,0,24.35-.29,36.49-.75a3.22,3.22,0,0,0,0-6.43Z"/><path class="cls-1" d="M1325.4,1492.64c-17.21-.44-34.45-1.22-51.66-1.2-4.26,0-4.27,6.55,0,6.55,17.21,0,34.45-.84,51.66-1.32a2,2,0,0,0,0-4Z"/><path class="cls-1" d="M856.12,1495c.79-10.64,1.26-21.31,1.57-32,.73-25.42,1.16-50.86,1.46-76.29q.54-46.38.85-92.75c.17-26.61.2-53.23.29-79.84,0-13,.67-26.13.06-39.1,0-.19,0-.37,0-.56,0-7.79-12.22-7.8-12.23,0,0,10.66,0,21.31,0,32q0,38.15.08,76.29c0,30.92.27,61.83.56,92.75q.39,39.91,1.21,79.84c.17,8.87.52,17.73.92,26.59.18,4.08,0,8.47.73,12.51,0,.18,0,.37,0,.56a2.25,2.25,0,0,0,4.49,0Z"/><path class="cls-1" d="M1323.15,1170c-.79,10.64-1.26,21.3-1.57,32-.73,25.42-1.16,50.86-1.46,76.29q-.54,46.37-.85,92.75c-.17,26.61-.2,53.22-.29,79.84,0,13-.67,26.12-.06,39.1,0,.18,0,.37,0,.56,0,7.79,12.22,7.8,12.23,0,0-10.66,0-21.31,0-32q0-38.14-.08-76.29c0-30.92-.27-61.83-.56-92.75q-.39-39.93-1.21-79.84c-.17-8.87-.52-17.73-.92-26.6-.18-4.07,0-8.47-.73-12.5,0-.18,0-.38,0-.56a2.25,2.25,0,0,0-4.49,0Z"/><path class="cls-1" d="M853.87,1172.38c15.58.42,31.16.81,46.75,1.08,37.24.66,74.51.7,111.76.9q67.8.38,135.61.3,58.4,0,116.79-.11c18.88,0,37.94.62,56.8-.18.27,0,.54,0,.81,0,5.93,0,5.94-9.13,0-9.12-15.58,0-31.16-.08-46.75-.06l-111.76.16q-67.8.09-135.61.52-58.39.45-116.79,1.09c-12.83.15-25.67.46-38.5.84-6,.17-12.36-.26-18.3.53a7.22,7.22,0,0,1-.81,0,2,2,0,0,0,0,4Z"/><path class="cls-1" d="M1229.35,1471.7c24.23-2.5,43-26.21,45.92-49,3.43-27.1-11.68-50.7-36.58-61.53-13.24-5.76-29.25-4.36-42.59.57-12.86,4.75-23.34,14.35-30.35,26-13.66,22.59-5.93,54.25,13.76,70.91,10.66,9,23.63,14.33,37.75,14.29s30.08-4.57,40.28-14.63c2.23-2.2-.68-6.18-3.44-4.41-9.68,6.25-19.46,11.39-31.13,12.71-11.19,1.26-22.69-.88-32.14-7.08-18-11.8-27.31-38.11-21.44-58.55,6.81-23.69,34.21-38.47,58.19-34.5,11.08,1.83,22.86,9.79,29.75,18.43a49.26,49.26,0,0,1,10.3,29.45A55.13,55.13,0,0,1,1257,1448c-7.24,10.22-17.13,16.17-28.33,21.34a1.3,1.3,0,0,0,.66,2.4Z"/><path class="cls-1" d="M1177.5,1456.06c-12,25.83-21.49,52.89-29.78,80.12-1.26,4.13,4.3,7.3,7.31,4.21,9.22-9.49,18.27-19.14,27.34-28.77l-7.22-1.89c3.3,12.1,5.68,24.89,10.07,36.63,1.63,4.34,7.35,3.4,7.89-1.06.11-1-.08.19.27-1.34.4-1.77.79-3.54,1.19-5.32q2.1-9.36,4.28-18.72c3.83-16.48,9-33,11.89-49.6a3.49,3.49,0,0,0-6.72-1.83c-5.78,16-8.85,33.53-12.75,50.1-2,8.49-3.33,17.4-6,25.82H1193c-2-12.16-6.33-24.73-9.48-36.87a4.39,4.39,0,0,0-7.22-1.92c-9.18,9.52-18.39,19-27.42,28.67l7.31,4.2c7.66-27.16,16.42-54,24.92-80.94.64-2-2.63-3.51-3.57-1.49Z"/><path class="cls-1" d="M1257.22,1456.23c8.65,27.36,17.58,54.67,25.49,82.25l7.32-4.22c-9-9.66-18.24-19.16-27.42-28.68a4.39,4.39,0,0,0-7.21,2c-3.16,12.14-7.46,24.71-9.49,36.87h7.74c-2.75-8.42-4.11-17.56-6.13-26.17-3.94-16.68-7-34.24-12.85-50.4a3.48,3.48,0,0,0-6.72,1.81c3,16.77,8.12,33.34,12,49.93q2.13,9.18,4.21,18.36.66,2.91,1.3,5.81a6.66,6.66,0,0,1,.32,1.56c.54,4.41,6.25,5.43,7.89,1,4.39-11.74,6.77-24.53,10.07-36.63l-7.21,1.89c9.07,9.63,18.1,19.29,27.33,28.77,3,3.09,8.6-.07,7.32-4.21-8.54-27.66-18.14-55.16-30.38-81.44-.92-2-4.22-.58-3.56,1.49Z"/><path class="cls-1" d="M1002.05,1232.58c-19.26-7.95-38.13,26.64-16.06,32,5.06,1.24,10.32-.22,14.6-3,2.4-1.55,10.15-10.78,13-8.71,1.32,1,1.49,3.72,2.73,5a6.22,6.22,0,0,0,5.74,1.78c2.48-.51,3.88-2.6,5.34-4.41.48-.59,5.16-6.21,6-3.52,1.44,4.42,7.34,3.28,7.81-1-.15,1.39,1.22,1.14,2.75,2a34.59,34.59,0,0,0,4.07,2.3c3,1.14,5,1,7.43-.91,2-1.56.63-4.52-1.38-5.18a44.11,44.11,0,0,1-7.47-3.41,11.49,11.49,0,0,0-5.25-1.46c-3.65-.07-7.41,1.93-8,5.67h7.67c-2.44-8.42-12.38-7.56-17.69-2.54a30.19,30.19,0,0,0-2.27,2.52l-.87,1q-1.68,1.55,2.38,1.19c.46-.81-1.92-4.18-2.5-4.8-2.55-2.71-6.8-3.53-10.34-2.62-7.25,1.86-16.48,18.58-24.82,11.36-3.8-3.28-1.61-9.5.79-13,3.29-4.72,9.42-8.45,15.28-6.86,2.35.64,3.08-2.62,1-3.49Z"/><path class="cls-1" d="M1074.81,1252.19c1.39-3.1,10,.56,12.13,1.08,3.77.89,7.82,2.25,11.69,1.79,2.73-.32,4.7-4.27,1.58-5.77s-6.3-1.66-9.7-2-7.45-1.1-11-.75c-3.29.32-6.55,1.54-6.92,5.09a1.2,1.2,0,0,0,2.21.59Z"/><path class="cls-1" d="M1117,1259.86c4.09-1.2,4.92-6.59,5.06-10.27.13-3.35-.8-7.27.76-10.39.6-1.19,3.06-4.26,4.9-2.72,1.18,1,.34,3.59.14,4.74-.73,4.1-1,8.91,3.63,10.84,4.18,1.74,8.15-.76,9.72-4.58l-6.22.81c1.62,3.48,3.41,6.88,5.31,10.22a3.55,3.55,0,0,0,6,0l5-7.67-6.51-.84c1.36,4.08,3.71,8.73,8.64,9.06,4.19.29,8-2.92,7.72-7.12l-4.62,3.48c8.36,2,17.62,1.51,26.18,2,6.6.35,13.77.74,18.06-5.1,2.65-3.59-2.78-6.75-5.75-4.39-4.42,3.51-11.45,2-16.7,1.83-6.47-.25-13.54.2-19.85-1.27-2.16-.51-4.79,1-4.62,3.48,0-.39-2-3.12-2.19-3.81a3.61,3.61,0,0,0-6.51-.68c-1.62,2.57-3.23,5.08-4.85,7.88h6c-1.94-3.74-3.74-6.85-5.47-10.29-1.41-2.8-5.31-1.78-6.22.73-.56,1.52-1-1.24-1-1.37-.23-1.23.51-3.05.62-4.31a9.76,9.76,0,0,0-.84-5.74c-1.95-3.63-6.31-4.38-9.91-2.82-3.93,1.71-5.77,5.33-6.07,9.46-.22,2.89.37,5.73.52,8.61.2,3.65-1,5.89-2.08,9.14a.92.92,0,0,0,1.12,1.12Z"/><path class="cls-1" d="M1051.92,1334.74a21.11,21.11,0,0,0-17.26,11,2.79,2.79,0,0,0,1,3.8,33.34,33.34,0,0,0,9.69,3.09c-.24-1.86-.49-3.73-.73-5.59-4.2,1.87-8.42,4.51-9,9.41-.51,3.91,1.75,7.68,5.84,8.35,2.18.36,4.21-.34,6.24-1.06,3.65-1.31,5.55-1.29,9.44-.7a11.06,11.06,0,0,0,6.32-.41,9.2,9.2,0,0,0,2.43-1.71,11.64,11.64,0,0,0,1.32-1.4,4,4,0,0,1,3.08-1.86c-.9,1.19.06,3.07,1.4,3.39,2.8.69,4.91-.42,6.92-2.33,1-.93,2-2.86,3.27-3.42,2.46-1.1,2.67,1.48,3.86,3.22,1.64,2.4,4.1,3.93,7.11,3.34,4.16-.81,7.4-7.65,11.23-2.69,1,1.24,2.89,2.29,4.41,1.15,4.21-3.17,10.24.68,14.94,1,4.4.34,7.9-1,10.59-4.44,2.25-2.9-2.64-6.56-5.1-3.89-3.18,3.45-9.52.27-13.38-.28-4.17-.6-7.68-.07-11,2.73h4.55c-2.83-3.74-6.66-5.94-11.1-3.86-1.71.8-2.84,2.18-4.36,3.21-3.12,2.11-3.19.36-4.93-2.1s-4.63-4.22-7.82-3c-2.28.9-5.92,7.18-8,6.83l1.4,3.39a4.56,4.56,0,0,0-1.38-6.44c-3-1.93-6.43.13-8.87,2-4.67,3.49-9.63,0-14.92,1.43-2.16.58-4.69,2.57-6.46.92-2.6-2.42,3.17-4.66,5.09-5.54,3.06-1.4,1.15-5.45-1.56-5.7a28.07,28.07,0,0,1-8.36-2.15l1.68,4.07c2.64-5.48,7-8.63,12.91-10.19,1.95-.51,1.61-3.66-.49-3.56Z"/></g></g></svg>