<svg id="Layer_1" data-name="Layer 1" xmlns="http://www.w3.org/2000/svg" viewBox="0 0 753.24 78.26"><defs><style>.cls-1{fill:#231f20;}</style></defs><path class="cls-1" d="M59.22,66.15H46.68L43,54.78H24.86l-3.6,11.37H8.79L27.39,15H41ZM40.4,45.94,34.91,28.76a22.26,22.26,0,0,1-.85-4.6h-.29a19.38,19.38,0,0,1-.89,4.46L27.32,45.94Z"/><path class="cls-1" d="M101.5,24.41H86.92V66.15H75.37V24.41H60.86V15H101.5Z"/><path class="cls-1" d="M144.27,24.41H129.69V66.15H118.14V24.41h-14.5V15h40.63Z"/><path class="cls-1" d="M181.8,66.15H151.15V15h29.48v9.37h-18V35.78h16.72v9.34H162.66V56.81H181.8Z"/><path class="cls-1" d="M236,66.15H224.36L203.3,34a45.88,45.88,0,0,1-2.57-4.24h-.14c.19,1.81.28,4.56.28,8.27V66.15H190V15h12.41l20.28,31.11q1.4,2.12,2.56,4.17h.15a54.28,54.28,0,0,1-.29-7V15H236Z"/><path class="cls-1" d="M247.68,66.15V15h18.1Q293,15,293,40q0,11.94-7.44,19.07t-19.8,7.13Zm11.51-41.74v32.4h5.7q7.49,0,11.75-4.49t4.26-12.23q0-7.31-4.23-11.49t-11.85-4.19Z"/><path class="cls-1" d="M350.9,66.15H340.24V60.91h-.14A11.89,11.89,0,0,1,329.23,67q-5.31,0-8.36-3a10.81,10.81,0,0,1-3.05-8q0-10.62,12.59-12.26l9.91-1.32q0-6-6.49-6a22.16,22.16,0,0,0-12.41,3.89V31.82a28.5,28.5,0,0,1,6.44-2.14,34.27,34.27,0,0,1,7.43-.92q15.61,0,15.61,15.57ZM340.32,51.32V48.86l-6.63.86c-3.67.47-5.49,2.12-5.49,5a4.09,4.09,0,0,0,1.33,3.16,5.14,5.14,0,0,0,3.62,1.23,6.64,6.64,0,0,0,5.17-2.2A7.9,7.9,0,0,0,340.32,51.32Z"/><path class="cls-1" d="M395.07,66.15H383.84V45.87q0-8.49-6.06-8.49A6,6,0,0,0,373,39.63a8.56,8.56,0,0,0-1.89,5.7V66.15H359.81V29.65h11.27v5.77h.14A12.9,12.9,0,0,1,383,28.76q12.1,0,12.12,15Z"/><path class="cls-1" d="M439.69,66.15H428.43v-5h-.14A12.63,12.63,0,0,1,417,67a13.84,13.84,0,0,1-11-4.83q-4.17-4.83-4.17-13.49,0-9.06,4.6-14.51a15,15,0,0,1,12.05-5.45q7.05,0,9.84,5.06h.14V12.11h11.26ZM428.64,48.4V45.65a8.63,8.63,0,0,0-2.07-5.91,7.28,7.28,0,0,0-11.22.59q-2.12,2.94-2.11,8.07,0,4.82,2,7.41a7.22,7.22,0,0,0,11.21-.14A11.42,11.42,0,0,0,428.64,48.4Z"/><path class="cls-1" d="M507.06,64.33Q501.47,67,492.44,67,480.68,67,474,60.13T467.21,41.7q0-12.27,7.57-19.89t19.66-7.63a36.75,36.75,0,0,1,12.62,1.89V27.15a22.39,22.39,0,0,0-11.69-3.06q-7.2,0-11.62,4.53t-4.42,12.26q0,7.41,4.17,11.81t11.23,4.41a24,24,0,0,0,12.33-3.28Z"/><path class="cls-1" d="M546.62,66.15H516V15h29.48v9.37h-18V35.78H544.2v9.34H527.48V56.81h19.14Z"/><path class="cls-1" d="M597.7,66.15H584.48l-8-13.15c-.59-1-1.16-1.89-1.71-2.68a15.32,15.32,0,0,0-1.66-2A6.48,6.48,0,0,0,571.42,47a4.43,4.43,0,0,0-2-.45h-3.1V66.15H554.82V15h18.25q18.61,0,18.61,13.9a14.29,14.29,0,0,1-.82,4.93A13.71,13.71,0,0,1,588.54,38a14.48,14.48,0,0,1-3.62,3.14,18.51,18.51,0,0,1-4.72,2.07v.14a7.24,7.24,0,0,1,2.21,1.16,16.19,16.19,0,0,1,2.07,1.87,27.41,27.41,0,0,1,1.91,2.3c.6.82,1.15,1.62,1.65,2.41ZM566.34,23.66V37.88h5a8.29,8.29,0,0,0,5.95-2.13,7.15,7.15,0,0,0,2.28-5.39q0-6.7-8-6.7Z"/><path class="cls-1" d="M638.37,24.41H623.79V66.15H612.25V24.41H597.74V15h40.63Z"/><path class="cls-1" d="M656.77,66.15H645.25V15h11.52Z"/><path class="cls-1" d="M697.93,24.41h-18V37h16.57V46.3H679.9V66.15H668.39V15h29.54Z"/><path class="cls-1" d="M744.88,15,728.23,48V66.15H716.72v-18L700.5,15h13.15l8.24,19.06c.14.36.53,1.75,1.17,4.18h.15a17.8,17.8,0,0,1,1.1-4L732.69,15Z"/></svg>